<mxfile host="app.diagrams.net" modified="2021-09-25T15:30:56.749Z" agent="5.0 (X11; Linux x86_64) AppleWebKit/537.36 (KHTML, like Gecko) Chrome/91.0.4472.77 Safari/537.36" etag="mDlfuGnSXJy_TOjTsOXE" version="15.3.2" type="github">
  <diagram id="kpv1vrX4rqQbmFdvBWj1" name="Page-1">
    <mxGraphModel dx="4663" dy="1943" grid="1" gridSize="10" guides="1" tooltips="1" connect="1" arrows="1" fold="1" page="1" pageScale="1" pageWidth="827" pageHeight="1169" math="0" shadow="0">
      <root>
        <mxCell id="0" />
        <mxCell id="1" parent="0" />
        <mxCell id="-4h2VTbRcgzLQDmxoGYg-1" value="Manipulates" style="edgeStyle=orthogonalEdgeStyle;rounded=0;orthogonalLoop=1;jettySize=auto;html=1;entryX=0.5;entryY=0;entryDx=0;entryDy=0;fontSize=18;fontStyle=1" edge="1" parent="1" source="-4h2VTbRcgzLQDmxoGYg-3" target="-4h2VTbRcgzLQDmxoGYg-7">
          <mxGeometry relative="1" as="geometry" />
        </mxCell>
        <mxCell id="-4h2VTbRcgzLQDmxoGYg-2" value="" style="edgeStyle=orthogonalEdgeStyle;rounded=0;orthogonalLoop=1;jettySize=auto;html=1;fontSize=12;" edge="1" parent="1" source="-4h2VTbRcgzLQDmxoGYg-3" target="-4h2VTbRcgzLQDmxoGYg-21">
          <mxGeometry relative="1" as="geometry" />
        </mxCell>
        <mxCell id="-4h2VTbRcgzLQDmxoGYg-3" value="Controller" style="rounded=1;whiteSpace=wrap;html=1;fontSize=24;fontStyle=1;gradientColor=#ffa500;fillColor=#ffcd28;strokeColor=#d79b00;" vertex="1" parent="1">
          <mxGeometry x="320" y="200" width="120" height="60" as="geometry" />
        </mxCell>
        <mxCell id="-4h2VTbRcgzLQDmxoGYg-4" style="edgeStyle=orthogonalEdgeStyle;rounded=0;orthogonalLoop=1;jettySize=auto;html=1;entryX=1;entryY=0.5;entryDx=0;entryDy=0;" edge="1" parent="1" source="-4h2VTbRcgzLQDmxoGYg-7" target="-4h2VTbRcgzLQDmxoGYg-11">
          <mxGeometry relative="1" as="geometry">
            <Array as="points">
              <mxPoint x="620" y="470" />
            </Array>
          </mxGeometry>
        </mxCell>
        <mxCell id="-4h2VTbRcgzLQDmxoGYg-5" value="Data to be displayed" style="edgeLabel;html=1;align=center;verticalAlign=middle;resizable=0;points=[];fontSize=18;fontStyle=1" vertex="1" connectable="0" parent="-4h2VTbRcgzLQDmxoGYg-4">
          <mxGeometry x="0.1704" y="1" relative="1" as="geometry">
            <mxPoint as="offset" />
          </mxGeometry>
        </mxCell>
        <mxCell id="-4h2VTbRcgzLQDmxoGYg-6" value="" style="edgeStyle=orthogonalEdgeStyle;rounded=0;orthogonalLoop=1;jettySize=auto;html=1;fontSize=18;" edge="1" parent="1" source="-4h2VTbRcgzLQDmxoGYg-7" target="-4h2VTbRcgzLQDmxoGYg-16">
          <mxGeometry relative="1" as="geometry" />
        </mxCell>
        <mxCell id="-4h2VTbRcgzLQDmxoGYg-7" value="Model" style="rounded=1;whiteSpace=wrap;html=1;fontSize=24;fontStyle=1;gradientColor=#97d077;fillColor=#d5e8d4;strokeColor=#82b366;" vertex="1" parent="1">
          <mxGeometry x="560" y="320" width="120" height="60" as="geometry" />
        </mxCell>
        <mxCell id="-4h2VTbRcgzLQDmxoGYg-8" style="edgeStyle=orthogonalEdgeStyle;rounded=0;orthogonalLoop=1;jettySize=auto;html=1;entryX=0.5;entryY=1;entryDx=0;entryDy=0;" edge="1" parent="1" source="-4h2VTbRcgzLQDmxoGYg-11" target="-4h2VTbRcgzLQDmxoGYg-14">
          <mxGeometry relative="1" as="geometry" />
        </mxCell>
        <mxCell id="-4h2VTbRcgzLQDmxoGYg-9" value="Response" style="edgeLabel;html=1;align=center;verticalAlign=middle;resizable=0;points=[];fontSize=18;fontStyle=1" vertex="1" connectable="0" parent="-4h2VTbRcgzLQDmxoGYg-8">
          <mxGeometry x="-0.0815" y="3" relative="1" as="geometry">
            <mxPoint as="offset" />
          </mxGeometry>
        </mxCell>
        <mxCell id="-4h2VTbRcgzLQDmxoGYg-10" value="" style="edgeStyle=orthogonalEdgeStyle;rounded=0;orthogonalLoop=1;jettySize=auto;html=1;fontSize=12;" edge="1" parent="1" source="-4h2VTbRcgzLQDmxoGYg-11" target="-4h2VTbRcgzLQDmxoGYg-18">
          <mxGeometry relative="1" as="geometry" />
        </mxCell>
        <mxCell id="-4h2VTbRcgzLQDmxoGYg-11" value="View" style="rounded=1;whiteSpace=wrap;html=1;fontSize=24;fontStyle=1;gradientColor=#ffd966;fillColor=#fff2cc;strokeColor=#d6b656;" vertex="1" parent="1">
          <mxGeometry x="320" y="440" width="120" height="60" as="geometry" />
        </mxCell>
        <mxCell id="-4h2VTbRcgzLQDmxoGYg-12" style="edgeStyle=orthogonalEdgeStyle;rounded=0;orthogonalLoop=1;jettySize=auto;html=1;entryX=0;entryY=0.5;entryDx=0;entryDy=0;" edge="1" parent="1" source="-4h2VTbRcgzLQDmxoGYg-14" target="-4h2VTbRcgzLQDmxoGYg-3">
          <mxGeometry relative="1" as="geometry">
            <Array as="points">
              <mxPoint x="140" y="230" />
            </Array>
          </mxGeometry>
        </mxCell>
        <mxCell id="-4h2VTbRcgzLQDmxoGYg-13" value="Request" style="edgeLabel;html=1;align=center;verticalAlign=middle;resizable=0;points=[];fontSize=18;fontStyle=1" vertex="1" connectable="0" parent="-4h2VTbRcgzLQDmxoGYg-12">
          <mxGeometry x="0.2074" y="3" relative="1" as="geometry">
            <mxPoint as="offset" />
          </mxGeometry>
        </mxCell>
        <mxCell id="-4h2VTbRcgzLQDmxoGYg-14" value="User" style="rounded=1;whiteSpace=wrap;html=1;fontSize=24;fontStyle=1;gradientColor=#7ea6e0;fillColor=#dae8fc;strokeColor=#6c8ebf;" vertex="1" parent="1">
          <mxGeometry x="80" y="320" width="120" height="60" as="geometry" />
        </mxCell>
        <mxCell id="-4h2VTbRcgzLQDmxoGYg-15" value="&lt;font color=&quot;#ff1414&quot; size=&quot;1&quot;&gt;&lt;b style=&quot;font-size: 60px&quot;&gt;MVC&lt;/b&gt;&lt;/font&gt;" style="text;html=1;strokeColor=none;fillColor=none;align=center;verticalAlign=middle;whiteSpace=wrap;rounded=0;" vertex="1" parent="1">
          <mxGeometry x="300" y="315" width="150" height="70" as="geometry" />
        </mxCell>
        <mxCell id="-4h2VTbRcgzLQDmxoGYg-16" value="Data access" style="rounded=0;whiteSpace=wrap;html=1;fontSize=12;fontStyle=0;align=center;" vertex="1" parent="1">
          <mxGeometry x="760" y="320" width="120" height="60" as="geometry" />
        </mxCell>
        <mxCell id="-4h2VTbRcgzLQDmxoGYg-17" value="Data structure" style="rounded=0;whiteSpace=wrap;html=1;fontSize=12;fontStyle=0;align=center;" vertex="1" parent="1">
          <mxGeometry x="760" y="260" width="120" height="60" as="geometry" />
        </mxCell>
        <mxCell id="-4h2VTbRcgzLQDmxoGYg-18" value="Data representation to the user" style="rounded=0;whiteSpace=wrap;html=1;fontSize=12;fontStyle=0;align=center;" vertex="1" parent="1">
          <mxGeometry x="320" y="570" width="120" height="60" as="geometry" />
        </mxCell>
        <mxCell id="-4h2VTbRcgzLQDmxoGYg-19" value="Business logic" style="rounded=0;whiteSpace=wrap;html=1;fontSize=12;fontStyle=0;align=center;" vertex="1" parent="1">
          <mxGeometry x="760" y="200" width="120" height="60" as="geometry" />
        </mxCell>
        <mxCell id="-4h2VTbRcgzLQDmxoGYg-20" value="Multiple representation of the same data are possible" style="rounded=0;whiteSpace=wrap;html=1;fontSize=12;fontStyle=0;align=center;" vertex="1" parent="1">
          <mxGeometry x="320" y="630" width="120" height="60" as="geometry" />
        </mxCell>
        <mxCell id="-4h2VTbRcgzLQDmxoGYg-21" value="Accepts request from the user" style="rounded=0;whiteSpace=wrap;html=1;fontSize=12;fontStyle=0;align=center;" vertex="1" parent="1">
          <mxGeometry x="320" y="60" width="120" height="60" as="geometry" />
        </mxCell>
        <mxCell id="-4h2VTbRcgzLQDmxoGYg-22" value="Issues commend to models" style="rounded=0;whiteSpace=wrap;html=1;fontSize=12;fontStyle=0;align=center;" vertex="1" parent="1">
          <mxGeometry x="320" width="120" height="60" as="geometry" />
        </mxCell>
        <mxCell id="-4h2VTbRcgzLQDmxoGYg-23" value="Modifies the model" style="rounded=0;whiteSpace=wrap;html=1;fontSize=12;fontStyle=0;align=center;" vertex="1" parent="1">
          <mxGeometry x="320" y="-60" width="120" height="60" as="geometry" />
        </mxCell>
        <mxCell id="-4h2VTbRcgzLQDmxoGYg-24" value="Decide on view to use" style="rounded=0;whiteSpace=wrap;html=1;fontSize=12;fontStyle=0;align=center;" vertex="1" parent="1">
          <mxGeometry x="320" y="-120" width="120" height="60" as="geometry" />
        </mxCell>
        <mxCell id="-4h2VTbRcgzLQDmxoGYg-25" value="" style="edgeStyle=orthogonalEdgeStyle;rounded=0;orthogonalLoop=1;jettySize=auto;html=1;fontSize=12;fontColor=default;" edge="1" parent="1" source="-4h2VTbRcgzLQDmxoGYg-28" target="-4h2VTbRcgzLQDmxoGYg-30">
          <mxGeometry relative="1" as="geometry" />
        </mxCell>
        <mxCell id="-4h2VTbRcgzLQDmxoGYg-26" value="" style="edgeStyle=orthogonalEdgeStyle;rounded=0;orthogonalLoop=1;jettySize=auto;html=1;fontSize=12;fontColor=default;" edge="1" parent="1" source="-4h2VTbRcgzLQDmxoGYg-28" target="-4h2VTbRcgzLQDmxoGYg-39">
          <mxGeometry relative="1" as="geometry" />
        </mxCell>
        <mxCell id="-4h2VTbRcgzLQDmxoGYg-27" value="" style="edgeStyle=orthogonalEdgeStyle;rounded=0;orthogonalLoop=1;jettySize=auto;html=1;fontSize=12;fontColor=default;" edge="1" parent="1" source="-4h2VTbRcgzLQDmxoGYg-28" target="-4h2VTbRcgzLQDmxoGYg-84">
          <mxGeometry relative="1" as="geometry" />
        </mxCell>
        <mxCell id="-4h2VTbRcgzLQDmxoGYg-28" value="" style="ellipse;whiteSpace=wrap;html=1;aspect=fixed;rounded=0;fontSize=12;align=center;fontColor=default;fillColor=none;" vertex="1" parent="1">
          <mxGeometry x="-70" y="-190" width="990" height="990" as="geometry" />
        </mxCell>
        <mxCell id="-4h2VTbRcgzLQDmxoGYg-29" value="" style="edgeStyle=orthogonalEdgeStyle;rounded=0;orthogonalLoop=1;jettySize=auto;html=1;fontSize=12;fontColor=default;" edge="1" parent="1" source="-4h2VTbRcgzLQDmxoGYg-30" target="-4h2VTbRcgzLQDmxoGYg-31">
          <mxGeometry relative="1" as="geometry" />
        </mxCell>
        <mxCell id="-4h2VTbRcgzLQDmxoGYg-30" value="Advantages" style="whiteSpace=wrap;html=1;rounded=1;fillColor=#e6d0de;gradientColor=#d5739d;strokeColor=#996185;" vertex="1" parent="1">
          <mxGeometry x="1160" y="275" width="120" height="60" as="geometry" />
        </mxCell>
        <mxCell id="-4h2VTbRcgzLQDmxoGYg-31" value="Separation of concerns" style="whiteSpace=wrap;html=1;rounded=0;" vertex="1" parent="1">
          <mxGeometry x="1360" y="275" width="120" height="60" as="geometry" />
        </mxCell>
        <mxCell id="-4h2VTbRcgzLQDmxoGYg-32" value="Increase code cohesion" style="whiteSpace=wrap;html=1;rounded=0;" vertex="1" parent="1">
          <mxGeometry x="1360" y="335" width="120" height="60" as="geometry" />
        </mxCell>
        <mxCell id="-4h2VTbRcgzLQDmxoGYg-33" value="Increased code reusability" style="whiteSpace=wrap;html=1;rounded=0;" vertex="1" parent="1">
          <mxGeometry x="1360" y="395" width="120" height="60" as="geometry" />
        </mxCell>
        <mxCell id="-4h2VTbRcgzLQDmxoGYg-34" value="Reduces coupling between data, logic and information representation" style="whiteSpace=wrap;html=1;rounded=0;" vertex="1" parent="1">
          <mxGeometry x="1360" y="455" width="120" height="60" as="geometry" />
        </mxCell>
        <mxCell id="-4h2VTbRcgzLQDmxoGYg-35" value="Lowers maintenance costs" style="whiteSpace=wrap;html=1;rounded=0;" vertex="1" parent="1">
          <mxGeometry x="1360" y="515" width="120" height="60" as="geometry" />
        </mxCell>
        <mxCell id="-4h2VTbRcgzLQDmxoGYg-36" value="Increases extensibility" style="whiteSpace=wrap;html=1;rounded=0;" vertex="1" parent="1">
          <mxGeometry x="1360" y="575" width="120" height="60" as="geometry" />
        </mxCell>
        <mxCell id="-4h2VTbRcgzLQDmxoGYg-37" value="" style="edgeStyle=orthogonalEdgeStyle;rounded=0;orthogonalLoop=1;jettySize=auto;html=1;fontSize=12;fontColor=default;" edge="1" parent="1" source="-4h2VTbRcgzLQDmxoGYg-39" target="-4h2VTbRcgzLQDmxoGYg-40">
          <mxGeometry relative="1" as="geometry" />
        </mxCell>
        <mxCell id="-4h2VTbRcgzLQDmxoGYg-38" value="" style="edgeStyle=orthogonalEdgeStyle;rounded=0;orthogonalLoop=1;jettySize=auto;html=1;fontSize=12;fontColor=default;" edge="1" parent="1" source="-4h2VTbRcgzLQDmxoGYg-39" target="-4h2VTbRcgzLQDmxoGYg-45">
          <mxGeometry relative="1" as="geometry" />
        </mxCell>
        <mxCell id="-4h2VTbRcgzLQDmxoGYg-39" value="Dispatcher servler" style="whiteSpace=wrap;html=1;rounded=1;fillColor=#e6d0de;gradientColor=#d5739d;strokeColor=#996185;" vertex="1" parent="1">
          <mxGeometry x="365" y="960" width="120" height="60" as="geometry" />
        </mxCell>
        <mxCell id="-4h2VTbRcgzLQDmxoGYg-40" value="Internal spring component" style="whiteSpace=wrap;html=1;rounded=0;" vertex="1" parent="1">
          <mxGeometry x="565" y="960" width="175" height="60" as="geometry" />
        </mxCell>
        <mxCell id="-4h2VTbRcgzLQDmxoGYg-41" value="Implements HttpServler from Java Servlet API and Front Controller Design Pattern" style="whiteSpace=wrap;html=1;rounded=0;" vertex="1" parent="1">
          <mxGeometry x="565" y="1020" width="175" height="70" as="geometry" />
        </mxCell>
        <mxCell id="-4h2VTbRcgzLQDmxoGYg-42" value="Delegate the request to the controller based on the mapping" style="whiteSpace=wrap;html=1;rounded=0;" vertex="1" parent="1">
          <mxGeometry x="565" y="1090" width="175" height="70" as="geometry" />
        </mxCell>
        <mxCell id="-4h2VTbRcgzLQDmxoGYg-43" value="Produce response based on identified view" style="whiteSpace=wrap;html=1;rounded=0;" vertex="1" parent="1">
          <mxGeometry x="565" y="1160" width="175" height="70" as="geometry" />
        </mxCell>
        <mxCell id="-4h2VTbRcgzLQDmxoGYg-44" value="" style="edgeStyle=orthogonalEdgeStyle;rounded=0;orthogonalLoop=1;jettySize=auto;html=1;fontSize=12;fontColor=default;" edge="1" parent="1" source="-4h2VTbRcgzLQDmxoGYg-45" target="-4h2VTbRcgzLQDmxoGYg-46">
          <mxGeometry relative="1" as="geometry" />
        </mxCell>
        <mxCell id="-4h2VTbRcgzLQDmxoGYg-45" value="Responsibility" style="whiteSpace=wrap;html=1;rounded=1;fillColor=#dae8fc;gradientColor=#7ea6e0;strokeColor=#6c8ebf;" vertex="1" parent="1">
          <mxGeometry x="165" y="960" width="120" height="60" as="geometry" />
        </mxCell>
        <mxCell id="-4h2VTbRcgzLQDmxoGYg-46" value="Delegate received request to Controllers" style="whiteSpace=wrap;html=1;rounded=0;" vertex="1" parent="1">
          <mxGeometry x="-70" y="960" width="155" height="60" as="geometry" />
        </mxCell>
        <mxCell id="-4h2VTbRcgzLQDmxoGYg-47" value="Using View Resolvers to resolve views pointed out by Controllers" style="whiteSpace=wrap;html=1;rounded=0;" vertex="1" parent="1">
          <mxGeometry x="-70" y="1020" width="155" height="60" as="geometry" />
        </mxCell>
        <mxCell id="-4h2VTbRcgzLQDmxoGYg-48" value="Produce response that is sent to user" style="whiteSpace=wrap;html=1;rounded=0;" vertex="1" parent="1">
          <mxGeometry x="-70" y="1080" width="155" height="60" as="geometry" />
        </mxCell>
        <mxCell id="-4h2VTbRcgzLQDmxoGYg-49" value="Handle shared concerns, like exception mapping, error handling, securiy ..." style="whiteSpace=wrap;html=1;rounded=0;" vertex="1" parent="1">
          <mxGeometry x="-70" y="1140" width="155" height="60" as="geometry" />
        </mxCell>
        <mxCell id="-4h2VTbRcgzLQDmxoGYg-50" style="edgeStyle=orthogonalEdgeStyle;rounded=0;orthogonalLoop=1;jettySize=auto;html=1;exitX=0.75;exitY=1;exitDx=0;exitDy=0;entryX=0;entryY=0.25;entryDx=0;entryDy=0;fontSize=12;fontColor=default;" edge="1" parent="1" source="-4h2VTbRcgzLQDmxoGYg-52" target="-4h2VTbRcgzLQDmxoGYg-63">
          <mxGeometry relative="1" as="geometry" />
        </mxCell>
        <mxCell id="-4h2VTbRcgzLQDmxoGYg-51" value="render view" style="edgeLabel;html=1;align=center;verticalAlign=middle;resizable=0;points=[];fontSize=12;fontColor=default;" vertex="1" connectable="0" parent="-4h2VTbRcgzLQDmxoGYg-50">
          <mxGeometry x="-0.653" y="3" relative="1" as="geometry">
            <mxPoint as="offset" />
          </mxGeometry>
        </mxCell>
        <mxCell id="-4h2VTbRcgzLQDmxoGYg-52" value="Front Controller" style="rounded=1;whiteSpace=wrap;html=1;fontSize=12;fillColor=#ffcd28;align=center;gradientColor=#ffa500;strokeColor=#d79b00;" vertex="1" parent="1">
          <mxGeometry x="45" y="1275" width="120" height="90" as="geometry" />
        </mxCell>
        <mxCell id="-4h2VTbRcgzLQDmxoGYg-53" value="" style="group" vertex="1" connectable="0" parent="1">
          <mxGeometry x="380" y="1140" width="120" height="150" as="geometry" />
        </mxCell>
        <mxCell id="-4h2VTbRcgzLQDmxoGYg-54" value="" style="rounded=1;whiteSpace=wrap;html=1;fontSize=12;fontColor=default;fillColor=none;align=center;" vertex="1" parent="-4h2VTbRcgzLQDmxoGYg-53">
          <mxGeometry width="120" height="150" as="geometry" />
        </mxCell>
        <mxCell id="-4h2VTbRcgzLQDmxoGYg-55" value="Controller 1" style="rounded=1;whiteSpace=wrap;html=1;fontSize=12;fillColor=#f5f5f5;align=center;gradientColor=#b3b3b3;strokeColor=#666666;" vertex="1" parent="-4h2VTbRcgzLQDmxoGYg-53">
          <mxGeometry x="10" y="45" width="100" height="35" as="geometry" />
        </mxCell>
        <mxCell id="-4h2VTbRcgzLQDmxoGYg-56" value="Controller 2" style="rounded=1;whiteSpace=wrap;html=1;fontSize=12;fillColor=#f5f5f5;align=center;gradientColor=#b3b3b3;strokeColor=#666666;" vertex="1" parent="-4h2VTbRcgzLQDmxoGYg-53">
          <mxGeometry x="10" y="90" width="100" height="35" as="geometry" />
        </mxCell>
        <mxCell id="-4h2VTbRcgzLQDmxoGYg-57" value="Controllers" style="text;html=1;strokeColor=none;fillColor=none;align=center;verticalAlign=middle;whiteSpace=wrap;rounded=0;fontSize=12;fontColor=default;" vertex="1" parent="-4h2VTbRcgzLQDmxoGYg-53">
          <mxGeometry x="40" y="10" width="40" height="20" as="geometry" />
        </mxCell>
        <mxCell id="-4h2VTbRcgzLQDmxoGYg-58" value="User" style="ellipse;whiteSpace=wrap;html=1;aspect=fixed;rounded=0;fontSize=12;fillColor=#dae8fc;align=center;gradientColor=#7ea6e0;strokeColor=#6c8ebf;" vertex="1" parent="1">
          <mxGeometry x="-210" y="1275" width="80" height="80" as="geometry" />
        </mxCell>
        <mxCell id="-4h2VTbRcgzLQDmxoGYg-59" style="edgeStyle=orthogonalEdgeStyle;rounded=0;orthogonalLoop=1;jettySize=auto;html=1;exitX=1;exitY=0.25;exitDx=0;exitDy=0;entryX=0;entryY=0.25;entryDx=0;entryDy=0;fontSize=12;fontColor=default;" edge="1" parent="1" source="-4h2VTbRcgzLQDmxoGYg-63" target="-4h2VTbRcgzLQDmxoGYg-65">
          <mxGeometry relative="1" as="geometry" />
        </mxCell>
        <mxCell id="-4h2VTbRcgzLQDmxoGYg-60" value="find view" style="edgeLabel;html=1;align=center;verticalAlign=middle;resizable=0;points=[];fontSize=12;fontColor=default;" vertex="1" connectable="0" parent="-4h2VTbRcgzLQDmxoGYg-59">
          <mxGeometry x="-0.1135" y="1" relative="1" as="geometry">
            <mxPoint as="offset" />
          </mxGeometry>
        </mxCell>
        <mxCell id="-4h2VTbRcgzLQDmxoGYg-61" style="edgeStyle=orthogonalEdgeStyle;rounded=0;orthogonalLoop=1;jettySize=auto;html=1;exitX=0;exitY=0.75;exitDx=0;exitDy=0;entryX=0.25;entryY=1;entryDx=0;entryDy=0;fontSize=12;fontColor=default;" edge="1" parent="1" source="-4h2VTbRcgzLQDmxoGYg-63" target="-4h2VTbRcgzLQDmxoGYg-52">
          <mxGeometry relative="1" as="geometry" />
        </mxCell>
        <mxCell id="-4h2VTbRcgzLQDmxoGYg-62" value="rendered view" style="edgeLabel;html=1;align=center;verticalAlign=middle;resizable=0;points=[];fontSize=12;fontColor=default;" vertex="1" connectable="0" parent="-4h2VTbRcgzLQDmxoGYg-61">
          <mxGeometry x="-0.2273" y="2" relative="1" as="geometry">
            <mxPoint as="offset" />
          </mxGeometry>
        </mxCell>
        <mxCell id="-4h2VTbRcgzLQDmxoGYg-63" value="View rendering" style="rounded=1;whiteSpace=wrap;html=1;fontSize=12;fillColor=#fff2cc;align=center;gradientColor=#ffd966;strokeColor=#d6b656;" vertex="1" parent="1">
          <mxGeometry x="220" y="1430" width="120" height="90" as="geometry" />
        </mxCell>
        <mxCell id="-4h2VTbRcgzLQDmxoGYg-64" value="" style="group" vertex="1" connectable="0" parent="1">
          <mxGeometry x="470" y="1415" width="120" height="150" as="geometry" />
        </mxCell>
        <mxCell id="-4h2VTbRcgzLQDmxoGYg-65" value="" style="rounded=1;whiteSpace=wrap;html=1;fontSize=12;fontColor=default;fillColor=none;align=center;" vertex="1" parent="-4h2VTbRcgzLQDmxoGYg-64">
          <mxGeometry width="120" height="150" as="geometry" />
        </mxCell>
        <mxCell id="-4h2VTbRcgzLQDmxoGYg-66" value="View 1" style="rounded=1;whiteSpace=wrap;html=1;fontSize=12;fillColor=#f5f5f5;align=center;gradientColor=#b3b3b3;strokeColor=#666666;" vertex="1" parent="-4h2VTbRcgzLQDmxoGYg-64">
          <mxGeometry x="10" y="45" width="100" height="35" as="geometry" />
        </mxCell>
        <mxCell id="-4h2VTbRcgzLQDmxoGYg-67" value="View 2" style="rounded=1;whiteSpace=wrap;html=1;fontSize=12;fillColor=#f5f5f5;align=center;gradientColor=#b3b3b3;strokeColor=#666666;" vertex="1" parent="-4h2VTbRcgzLQDmxoGYg-64">
          <mxGeometry x="10" y="90" width="100" height="35" as="geometry" />
        </mxCell>
        <mxCell id="-4h2VTbRcgzLQDmxoGYg-68" value="Views" style="text;html=1;strokeColor=none;fillColor=none;align=center;verticalAlign=middle;whiteSpace=wrap;rounded=0;fontSize=12;fontColor=default;" vertex="1" parent="-4h2VTbRcgzLQDmxoGYg-64">
          <mxGeometry x="40" y="10" width="40" height="20" as="geometry" />
        </mxCell>
        <mxCell id="-4h2VTbRcgzLQDmxoGYg-69" value="" style="endArrow=classic;html=1;fontSize=12;fontColor=default;exitX=1;exitY=0;exitDx=0;exitDy=0;entryX=0;entryY=0.25;entryDx=0;entryDy=0;" edge="1" parent="1" source="-4h2VTbRcgzLQDmxoGYg-58" target="-4h2VTbRcgzLQDmxoGYg-52">
          <mxGeometry width="50" height="50" relative="1" as="geometry">
            <mxPoint x="-50" y="1340" as="sourcePoint" />
            <mxPoint y="1290" as="targetPoint" />
          </mxGeometry>
        </mxCell>
        <mxCell id="-4h2VTbRcgzLQDmxoGYg-70" value="request" style="edgeLabel;html=1;align=center;verticalAlign=middle;resizable=0;points=[];fontSize=12;fontColor=default;" vertex="1" connectable="0" parent="-4h2VTbRcgzLQDmxoGYg-69">
          <mxGeometry x="-0.1734" y="2" relative="1" as="geometry">
            <mxPoint as="offset" />
          </mxGeometry>
        </mxCell>
        <mxCell id="-4h2VTbRcgzLQDmxoGYg-71" value="" style="endArrow=classic;html=1;fontSize=12;fontColor=default;exitX=0;exitY=0.75;exitDx=0;exitDy=0;entryX=1;entryY=1;entryDx=0;entryDy=0;" edge="1" parent="1" source="-4h2VTbRcgzLQDmxoGYg-52" target="-4h2VTbRcgzLQDmxoGYg-58">
          <mxGeometry width="50" height="50" relative="1" as="geometry">
            <mxPoint x="120" y="1350" as="sourcePoint" />
            <mxPoint x="170" y="1300" as="targetPoint" />
          </mxGeometry>
        </mxCell>
        <mxCell id="-4h2VTbRcgzLQDmxoGYg-72" value="response" style="edgeLabel;html=1;align=center;verticalAlign=middle;resizable=0;points=[];fontSize=12;fontColor=default;" vertex="1" connectable="0" parent="-4h2VTbRcgzLQDmxoGYg-71">
          <mxGeometry x="0.1651" y="2" relative="1" as="geometry">
            <mxPoint as="offset" />
          </mxGeometry>
        </mxCell>
        <mxCell id="-4h2VTbRcgzLQDmxoGYg-73" value="" style="endArrow=classic;html=1;fontSize=12;fontColor=default;entryX=0;entryY=0.25;entryDx=0;entryDy=0;exitX=1;exitY=0.25;exitDx=0;exitDy=0;" edge="1" parent="1" source="-4h2VTbRcgzLQDmxoGYg-52" target="-4h2VTbRcgzLQDmxoGYg-54">
          <mxGeometry width="50" height="50" relative="1" as="geometry">
            <mxPoint x="120" y="1350" as="sourcePoint" />
            <mxPoint x="170" y="1300" as="targetPoint" />
          </mxGeometry>
        </mxCell>
        <mxCell id="-4h2VTbRcgzLQDmxoGYg-74" value="delegate request" style="edgeLabel;html=1;align=center;verticalAlign=middle;resizable=0;points=[];fontSize=12;fontColor=default;" vertex="1" connectable="0" parent="-4h2VTbRcgzLQDmxoGYg-73">
          <mxGeometry x="-0.219" y="1" relative="1" as="geometry">
            <mxPoint as="offset" />
          </mxGeometry>
        </mxCell>
        <mxCell id="-4h2VTbRcgzLQDmxoGYg-75" value="" style="endArrow=classic;html=1;fontSize=12;fontColor=default;exitX=0;exitY=0.75;exitDx=0;exitDy=0;entryX=1;entryY=0.5;entryDx=0;entryDy=0;" edge="1" parent="1" source="-4h2VTbRcgzLQDmxoGYg-54" target="-4h2VTbRcgzLQDmxoGYg-52">
          <mxGeometry width="50" height="50" relative="1" as="geometry">
            <mxPoint x="120" y="1310" as="sourcePoint" />
            <mxPoint x="170" y="1260" as="targetPoint" />
          </mxGeometry>
        </mxCell>
        <mxCell id="-4h2VTbRcgzLQDmxoGYg-76" value="Model" style="rounded=1;whiteSpace=wrap;html=1;fontSize=12;fillColor=#d5e8d4;align=center;rotation=344;gradientColor=#97d077;strokeColor=#82b366;" vertex="1" parent="1">
          <mxGeometry x="247.5" y="1275" width="65" height="15" as="geometry" />
        </mxCell>
        <mxCell id="-4h2VTbRcgzLQDmxoGYg-77" value="delegate view rendering" style="text;html=1;strokeColor=none;fillColor=none;align=center;verticalAlign=middle;whiteSpace=wrap;rounded=0;fontSize=12;fontColor=default;" vertex="1" parent="1">
          <mxGeometry x="210" y="1305" width="180" height="20" as="geometry" />
        </mxCell>
        <mxCell id="-4h2VTbRcgzLQDmxoGYg-78" value="Model" style="rounded=1;whiteSpace=wrap;html=1;fontSize=12;fillColor=#d5e8d4;align=center;rotation=0;gradientColor=#97d077;strokeColor=#82b366;" vertex="1" parent="1">
          <mxGeometry x="107.5" y="1415" width="52.5" height="15" as="geometry" />
        </mxCell>
        <mxCell id="-4h2VTbRcgzLQDmxoGYg-79" style="edgeStyle=orthogonalEdgeStyle;rounded=0;orthogonalLoop=1;jettySize=auto;html=1;exitX=-0.017;exitY=0.547;exitDx=0;exitDy=0;entryX=1;entryY=0.75;entryDx=0;entryDy=0;fontSize=12;fontColor=default;exitPerimeter=0;" edge="1" parent="1" source="-4h2VTbRcgzLQDmxoGYg-65" target="-4h2VTbRcgzLQDmxoGYg-63">
          <mxGeometry relative="1" as="geometry" />
        </mxCell>
        <mxCell id="-4h2VTbRcgzLQDmxoGYg-80" value="get view" style="edgeLabel;html=1;align=center;verticalAlign=middle;resizable=0;points=[];fontSize=12;fontColor=default;" vertex="1" connectable="0" parent="-4h2VTbRcgzLQDmxoGYg-79">
          <mxGeometry x="0.1994" y="1" relative="1" as="geometry">
            <mxPoint as="offset" />
          </mxGeometry>
        </mxCell>
        <mxCell id="-4h2VTbRcgzLQDmxoGYg-81" value="" style="edgeStyle=orthogonalEdgeStyle;rounded=0;orthogonalLoop=1;jettySize=auto;html=1;fontSize=12;fontColor=default;" edge="1" parent="1" source="-4h2VTbRcgzLQDmxoGYg-84" target="-4h2VTbRcgzLQDmxoGYg-85">
          <mxGeometry relative="1" as="geometry" />
        </mxCell>
        <mxCell id="-4h2VTbRcgzLQDmxoGYg-82" value="" style="edgeStyle=orthogonalEdgeStyle;rounded=0;orthogonalLoop=1;jettySize=auto;html=1;fontSize=12;fontColor=default;" edge="1" parent="1" source="-4h2VTbRcgzLQDmxoGYg-84" target="-4h2VTbRcgzLQDmxoGYg-88">
          <mxGeometry relative="1" as="geometry" />
        </mxCell>
        <mxCell id="-4h2VTbRcgzLQDmxoGYg-83" value="" style="edgeStyle=orthogonalEdgeStyle;rounded=0;orthogonalLoop=1;jettySize=auto;html=1;fontSize=12;fontColor=default;" edge="1" parent="1" source="-4h2VTbRcgzLQDmxoGYg-84" target="-4h2VTbRcgzLQDmxoGYg-99">
          <mxGeometry relative="1" as="geometry" />
        </mxCell>
        <mxCell id="-4h2VTbRcgzLQDmxoGYg-84" value="Web application context" style="whiteSpace=wrap;html=1;rounded=1;fillColor=#e6d0de;gradientColor=#d5739d;strokeColor=#996185;" vertex="1" parent="1">
          <mxGeometry x="-705" y="275" width="120" height="60" as="geometry" />
        </mxCell>
        <mxCell id="-4h2VTbRcgzLQDmxoGYg-85" value="Spring application context for web app" style="whiteSpace=wrap;html=1;rounded=0;" vertex="1" parent="1">
          <mxGeometry x="-802.5" y="420" width="315" height="60" as="geometry" />
        </mxCell>
        <mxCell id="-4h2VTbRcgzLQDmxoGYg-86" value="Runs under embedded container or standalone application server that supports servlet&amp;nbsp; API and acts as Servlet Container" style="whiteSpace=wrap;html=1;rounded=0;" vertex="1" parent="1">
          <mxGeometry x="-802.5" y="480" width="315" height="60" as="geometry" />
        </mxCell>
        <mxCell id="-4h2VTbRcgzLQDmxoGYg-87" value="" style="edgeStyle=orthogonalEdgeStyle;rounded=0;orthogonalLoop=1;jettySize=auto;html=1;fontSize=12;fontColor=default;" edge="1" parent="1" source="-4h2VTbRcgzLQDmxoGYg-88" target="-4h2VTbRcgzLQDmxoGYg-89">
          <mxGeometry relative="1" as="geometry" />
        </mxCell>
        <mxCell id="-4h2VTbRcgzLQDmxoGYg-88" value="Provide 4 additional scopes" style="whiteSpace=wrap;html=1;rounded=1;fillColor=#dae8fc;gradientColor=#7ea6e0;strokeColor=#6c8ebf;" vertex="1" parent="1">
          <mxGeometry x="-980" y="635" width="120" height="60" as="geometry" />
        </mxCell>
        <mxCell id="-4h2VTbRcgzLQDmxoGYg-89" value="Request scope" style="whiteSpace=wrap;html=1;rounded=0;" vertex="1" parent="1">
          <mxGeometry x="-720" y="570" width="120" height="60" as="geometry" />
        </mxCell>
        <mxCell id="-4h2VTbRcgzLQDmxoGYg-90" value="Session scope" style="whiteSpace=wrap;html=1;rounded=0;" vertex="1" parent="1">
          <mxGeometry x="-720" y="630" width="120" height="60" as="geometry" />
        </mxCell>
        <mxCell id="-4h2VTbRcgzLQDmxoGYg-91" value="Application scope" style="whiteSpace=wrap;html=1;rounded=0;" vertex="1" parent="1">
          <mxGeometry x="-720" y="690" width="120" height="60" as="geometry" />
        </mxCell>
        <mxCell id="-4h2VTbRcgzLQDmxoGYg-92" value="Websocket scope" style="whiteSpace=wrap;html=1;rounded=0;" vertex="1" parent="1">
          <mxGeometry x="-720" y="750" width="120" height="60" as="geometry" />
        </mxCell>
        <mxCell id="-4h2VTbRcgzLQDmxoGYg-93" value="" style="edgeStyle=orthogonalEdgeStyle;rounded=0;orthogonalLoop=1;jettySize=auto;html=1;fontSize=12;fontColor=default;entryX=0.5;entryY=1;entryDx=0;entryDy=0;" edge="1" parent="1" source="-4h2VTbRcgzLQDmxoGYg-99" target="-4h2VTbRcgzLQDmxoGYg-101">
          <mxGeometry relative="1" as="geometry" />
        </mxCell>
        <mxCell id="-4h2VTbRcgzLQDmxoGYg-94" value="" style="edgeStyle=orthogonalEdgeStyle;rounded=0;orthogonalLoop=1;jettySize=auto;html=1;fontSize=12;fontColor=default;" edge="1" parent="1" source="-4h2VTbRcgzLQDmxoGYg-99" target="-4h2VTbRcgzLQDmxoGYg-104">
          <mxGeometry relative="1" as="geometry" />
        </mxCell>
        <mxCell id="-4h2VTbRcgzLQDmxoGYg-95" value="" style="edgeStyle=orthogonalEdgeStyle;rounded=0;orthogonalLoop=1;jettySize=auto;html=1;" edge="1" parent="1" source="-4h2VTbRcgzLQDmxoGYg-99" target="-4h2VTbRcgzLQDmxoGYg-137">
          <mxGeometry relative="1" as="geometry" />
        </mxCell>
        <mxCell id="-4h2VTbRcgzLQDmxoGYg-96" style="edgeStyle=orthogonalEdgeStyle;rounded=0;orthogonalLoop=1;jettySize=auto;html=1;entryX=1;entryY=0.5;entryDx=0;entryDy=0;" edge="1" parent="1" source="-4h2VTbRcgzLQDmxoGYg-99" target="-4h2VTbRcgzLQDmxoGYg-141">
          <mxGeometry relative="1" as="geometry">
            <mxPoint x="-1250" y="50" as="targetPoint" />
          </mxGeometry>
        </mxCell>
        <mxCell id="-4h2VTbRcgzLQDmxoGYg-97" style="edgeStyle=orthogonalEdgeStyle;rounded=0;orthogonalLoop=1;jettySize=auto;html=1;entryX=1;entryY=0.5;entryDx=0;entryDy=0;" edge="1" parent="1" source="-4h2VTbRcgzLQDmxoGYg-99" target="-4h2VTbRcgzLQDmxoGYg-194">
          <mxGeometry relative="1" as="geometry" />
        </mxCell>
        <mxCell id="-4h2VTbRcgzLQDmxoGYg-98" style="edgeStyle=orthogonalEdgeStyle;rounded=0;orthogonalLoop=1;jettySize=auto;html=1;entryX=0.5;entryY=0;entryDx=0;entryDy=0;" edge="1" parent="1" source="-4h2VTbRcgzLQDmxoGYg-99" target="-4h2VTbRcgzLQDmxoGYg-213">
          <mxGeometry relative="1" as="geometry" />
        </mxCell>
        <mxCell id="-4h2VTbRcgzLQDmxoGYg-99" value="@Controller&amp;nbsp;" style="whiteSpace=wrap;html=1;rounded=1;fillColor=#dae8fc;gradientColor=#7ea6e0;strokeColor=#6c8ebf;" vertex="1" parent="1">
          <mxGeometry x="-705" y="20" width="120" height="60" as="geometry" />
        </mxCell>
        <mxCell id="-4h2VTbRcgzLQDmxoGYg-100" value="A candidate for request handling&amp;nbsp;" style="whiteSpace=wrap;html=1;rounded=0;" vertex="1" parent="1">
          <mxGeometry x="-950" y="-155" width="180" height="60" as="geometry" />
        </mxCell>
        <mxCell id="-4h2VTbRcgzLQDmxoGYg-101" value="&lt;div&gt;DispatcherServlet searches for component to which work can be&lt;/div&gt;&lt;div&gt;delegated&lt;/div&gt;" style="whiteSpace=wrap;html=1;rounded=0;" vertex="1" parent="1">
          <mxGeometry x="-950" y="-95" width="180" height="60" as="geometry" />
        </mxCell>
        <mxCell id="-4h2VTbRcgzLQDmxoGYg-102" value="" style="edgeStyle=orthogonalEdgeStyle;rounded=0;orthogonalLoop=1;jettySize=auto;html=1;fontSize=12;fontColor=default;" edge="1" parent="1" source="-4h2VTbRcgzLQDmxoGYg-104" target="-4h2VTbRcgzLQDmxoGYg-105">
          <mxGeometry relative="1" as="geometry" />
        </mxCell>
        <mxCell id="-4h2VTbRcgzLQDmxoGYg-103" value="" style="edgeStyle=orthogonalEdgeStyle;rounded=0;orthogonalLoop=1;jettySize=auto;html=1;fontSize=12;fontColor=default;" edge="1" parent="1" source="-4h2VTbRcgzLQDmxoGYg-104" target="-4h2VTbRcgzLQDmxoGYg-112">
          <mxGeometry relative="1" as="geometry" />
        </mxCell>
        <mxCell id="-4h2VTbRcgzLQDmxoGYg-104" value="HandlerMapping scan classpath for @Controller and @RestController with one of request mapping annotations" style="whiteSpace=wrap;html=1;rounded=1;gradientColor=#b3b3b3;fillColor=#f5f5f5;strokeColor=#666666;" vertex="1" parent="1">
          <mxGeometry x="-735" y="-120" width="180" height="60" as="geometry" />
        </mxCell>
        <mxCell id="-4h2VTbRcgzLQDmxoGYg-105" value="@RequestMapping" style="whiteSpace=wrap;html=1;rounded=0;" vertex="1" parent="1">
          <mxGeometry x="-445" y="-180" width="115" height="30" as="geometry" />
        </mxCell>
        <mxCell id="-4h2VTbRcgzLQDmxoGYg-106" value="@GetMapping" style="whiteSpace=wrap;html=1;rounded=0;" vertex="1" parent="1">
          <mxGeometry x="-445" y="-150" width="115" height="30" as="geometry" />
        </mxCell>
        <mxCell id="-4h2VTbRcgzLQDmxoGYg-107" value="" style="edgeStyle=orthogonalEdgeStyle;rounded=0;orthogonalLoop=1;jettySize=auto;html=1;" edge="1" parent="1" source="-4h2VTbRcgzLQDmxoGYg-108" target="-4h2VTbRcgzLQDmxoGYg-132">
          <mxGeometry relative="1" as="geometry" />
        </mxCell>
        <mxCell id="-4h2VTbRcgzLQDmxoGYg-108" value="@PostMapping" style="whiteSpace=wrap;html=1;rounded=0;" vertex="1" parent="1">
          <mxGeometry x="-445" y="-120" width="115" height="30" as="geometry" />
        </mxCell>
        <mxCell id="-4h2VTbRcgzLQDmxoGYg-109" value="@PutMapping" style="whiteSpace=wrap;html=1;rounded=0;" vertex="1" parent="1">
          <mxGeometry x="-445" y="-90" width="115" height="30" as="geometry" />
        </mxCell>
        <mxCell id="-4h2VTbRcgzLQDmxoGYg-110" value="@PatchMapping" style="whiteSpace=wrap;html=1;rounded=0;" vertex="1" parent="1">
          <mxGeometry x="-445" y="-60" width="115" height="30" as="geometry" />
        </mxCell>
        <mxCell id="-4h2VTbRcgzLQDmxoGYg-111" value="@DeleteMapping" style="whiteSpace=wrap;html=1;rounded=0;" vertex="1" parent="1">
          <mxGeometry x="-445" y="-30" width="115" height="30" as="geometry" />
        </mxCell>
        <mxCell id="-4h2VTbRcgzLQDmxoGYg-112" value="&lt;div&gt;HandlerAdapter components are responsible for execution of method identified as&lt;/div&gt;&lt;div&gt;handler candidate for the request.&lt;/div&gt;" style="whiteSpace=wrap;html=1;rounded=0;" vertex="1" parent="1">
          <mxGeometry x="-757.5" y="-260" width="225" height="60" as="geometry" />
        </mxCell>
        <mxCell id="-4h2VTbRcgzLQDmxoGYg-113" style="edgeStyle=orthogonalEdgeStyle;rounded=0;orthogonalLoop=1;jettySize=auto;html=1;exitX=1;exitY=0;exitDx=0;exitDy=0;entryX=0.042;entryY=0.131;entryDx=0;entryDy=0;entryPerimeter=0;fontSize=12;fontColor=default;" edge="1" parent="1" source="-4h2VTbRcgzLQDmxoGYg-115" target="-4h2VTbRcgzLQDmxoGYg-119">
          <mxGeometry relative="1" as="geometry" />
        </mxCell>
        <mxCell id="-4h2VTbRcgzLQDmxoGYg-114" value="request" style="edgeLabel;html=1;align=center;verticalAlign=middle;resizable=0;points=[];" vertex="1" connectable="0" parent="-4h2VTbRcgzLQDmxoGYg-113">
          <mxGeometry x="-0.1262" relative="1" as="geometry">
            <mxPoint x="3" as="offset" />
          </mxGeometry>
        </mxCell>
        <mxCell id="-4h2VTbRcgzLQDmxoGYg-115" value="User" style="ellipse;whiteSpace=wrap;html=1;aspect=fixed;rounded=0;fontSize=12;fillColor=#dae8fc;align=center;strokeColor=#6c8ebf;gradientColor=#7ea6e0;" vertex="1" parent="1">
          <mxGeometry x="-1470" y="-400" width="80" height="80" as="geometry" />
        </mxCell>
        <mxCell id="-4h2VTbRcgzLQDmxoGYg-116" value="" style="edgeStyle=orthogonalEdgeStyle;rounded=0;orthogonalLoop=1;jettySize=auto;html=1;" edge="1" parent="1" source="-4h2VTbRcgzLQDmxoGYg-119" target="-4h2VTbRcgzLQDmxoGYg-121">
          <mxGeometry relative="1" as="geometry" />
        </mxCell>
        <mxCell id="-4h2VTbRcgzLQDmxoGYg-117" style="edgeStyle=orthogonalEdgeStyle;rounded=0;orthogonalLoop=1;jettySize=auto;html=1;exitX=0;exitY=0.75;exitDx=0;exitDy=0;entryX=1;entryY=1;entryDx=0;entryDy=0;" edge="1" parent="1" source="-4h2VTbRcgzLQDmxoGYg-119" target="-4h2VTbRcgzLQDmxoGYg-115">
          <mxGeometry relative="1" as="geometry" />
        </mxCell>
        <mxCell id="-4h2VTbRcgzLQDmxoGYg-118" value="response" style="edgeLabel;html=1;align=center;verticalAlign=middle;resizable=0;points=[];" vertex="1" connectable="0" parent="-4h2VTbRcgzLQDmxoGYg-117">
          <mxGeometry x="0.1783" y="-1" relative="1" as="geometry">
            <mxPoint as="offset" />
          </mxGeometry>
        </mxCell>
        <mxCell id="-4h2VTbRcgzLQDmxoGYg-119" value="Application server" style="rounded=1;whiteSpace=wrap;html=1;fontSize=12;fillColor=#fff2cc;align=center;strokeColor=#d6b656;gradientColor=#ffd966;" vertex="1" parent="1">
          <mxGeometry x="-1245" y="-400" width="120" height="90" as="geometry" />
        </mxCell>
        <mxCell id="-4h2VTbRcgzLQDmxoGYg-120" value="" style="edgeStyle=orthogonalEdgeStyle;rounded=0;orthogonalLoop=1;jettySize=auto;html=1;" edge="1" parent="1" source="-4h2VTbRcgzLQDmxoGYg-121" target="-4h2VTbRcgzLQDmxoGYg-123">
          <mxGeometry relative="1" as="geometry" />
        </mxCell>
        <mxCell id="-4h2VTbRcgzLQDmxoGYg-121" value="Search for Servlet" style="whiteSpace=wrap;html=1;rounded=1;fontColor=default;fillColor=default;" vertex="1" parent="1">
          <mxGeometry x="-1045" y="-385" width="120" height="60" as="geometry" />
        </mxCell>
        <mxCell id="-4h2VTbRcgzLQDmxoGYg-122" value="" style="edgeStyle=orthogonalEdgeStyle;rounded=0;orthogonalLoop=1;jettySize=auto;html=1;" edge="1" parent="1" source="-4h2VTbRcgzLQDmxoGYg-123" target="-4h2VTbRcgzLQDmxoGYg-125">
          <mxGeometry relative="1" as="geometry" />
        </mxCell>
        <mxCell id="-4h2VTbRcgzLQDmxoGYg-123" value="DispatcherServlet is selected based on Servlet Registration" style="whiteSpace=wrap;html=1;rounded=1;fontColor=default;fillColor=default;" vertex="1" parent="1">
          <mxGeometry x="-845" y="-385" width="120" height="60" as="geometry" />
        </mxCell>
        <mxCell id="-4h2VTbRcgzLQDmxoGYg-124" value="" style="edgeStyle=orthogonalEdgeStyle;rounded=0;orthogonalLoop=1;jettySize=auto;html=1;" edge="1" parent="1" source="-4h2VTbRcgzLQDmxoGYg-125" target="-4h2VTbRcgzLQDmxoGYg-128">
          <mxGeometry relative="1" as="geometry" />
        </mxCell>
        <mxCell id="-4h2VTbRcgzLQDmxoGYg-125" value="Using HandlerMapping to get request mapping information" style="whiteSpace=wrap;html=1;rounded=1;fontColor=default;fillColor=default;" vertex="1" parent="1">
          <mxGeometry x="-645" y="-385" width="120" height="60" as="geometry" />
        </mxCell>
        <mxCell id="-4h2VTbRcgzLQDmxoGYg-126" style="edgeStyle=orthogonalEdgeStyle;rounded=0;orthogonalLoop=1;jettySize=auto;html=1;entryX=0.5;entryY=1;entryDx=0;entryDy=0;" edge="1" parent="1" source="-4h2VTbRcgzLQDmxoGYg-128" target="-4h2VTbRcgzLQDmxoGYg-119">
          <mxGeometry relative="1" as="geometry">
            <Array as="points">
              <mxPoint x="-385" y="-290" />
              <mxPoint x="-1185" y="-290" />
            </Array>
          </mxGeometry>
        </mxCell>
        <mxCell id="-4h2VTbRcgzLQDmxoGYg-127" value="result" style="edgeLabel;html=1;align=center;verticalAlign=middle;resizable=0;points=[];" vertex="1" connectable="0" parent="-4h2VTbRcgzLQDmxoGYg-126">
          <mxGeometry x="-0.0503" y="-3" relative="1" as="geometry">
            <mxPoint as="offset" />
          </mxGeometry>
        </mxCell>
        <mxCell id="-4h2VTbRcgzLQDmxoGYg-128" value="Using HandlerAdapter to execute controller method" style="whiteSpace=wrap;html=1;rounded=1;fontColor=default;fillColor=default;" vertex="1" parent="1">
          <mxGeometry x="-445" y="-385" width="120" height="60" as="geometry" />
        </mxCell>
        <mxCell id="-4h2VTbRcgzLQDmxoGYg-129" value="path" style="whiteSpace=wrap;html=1;rounded=0;" vertex="1" parent="1">
          <mxGeometry x="-274" y="-180" width="115" height="30" as="geometry" />
        </mxCell>
        <mxCell id="-4h2VTbRcgzLQDmxoGYg-130" value="method" style="whiteSpace=wrap;html=1;rounded=0;" vertex="1" parent="1">
          <mxGeometry x="-274" y="-150" width="115" height="30" as="geometry" />
        </mxCell>
        <mxCell id="-4h2VTbRcgzLQDmxoGYg-131" value="params" style="whiteSpace=wrap;html=1;rounded=0;" vertex="1" parent="1">
          <mxGeometry x="-274" y="-125" width="115" height="30" as="geometry" />
        </mxCell>
        <mxCell id="-4h2VTbRcgzLQDmxoGYg-132" value="headers" style="whiteSpace=wrap;html=1;rounded=0;" vertex="1" parent="1">
          <mxGeometry x="-274" y="-95" width="115" height="30" as="geometry" />
        </mxCell>
        <mxCell id="-4h2VTbRcgzLQDmxoGYg-133" value="consumes" style="whiteSpace=wrap;html=1;rounded=0;" vertex="1" parent="1">
          <mxGeometry x="-274" y="-65" width="115" height="30" as="geometry" />
        </mxCell>
        <mxCell id="-4h2VTbRcgzLQDmxoGYg-134" value="produces" style="whiteSpace=wrap;html=1;rounded=0;" vertex="1" parent="1">
          <mxGeometry x="-274" y="-35" width="115" height="30" as="geometry" />
        </mxCell>
        <mxCell id="-4h2VTbRcgzLQDmxoGYg-135" value="" style="edgeStyle=orthogonalEdgeStyle;rounded=0;orthogonalLoop=1;jettySize=auto;html=1;" edge="1" parent="1" source="-4h2VTbRcgzLQDmxoGYg-137" target="-4h2VTbRcgzLQDmxoGYg-138">
          <mxGeometry relative="1" as="geometry" />
        </mxCell>
        <mxCell id="-4h2VTbRcgzLQDmxoGYg-136" value="" style="edgeStyle=orthogonalEdgeStyle;rounded=0;orthogonalLoop=1;jettySize=auto;html=1;" edge="1" parent="1" source="-4h2VTbRcgzLQDmxoGYg-137" target="-4h2VTbRcgzLQDmxoGYg-139">
          <mxGeometry relative="1" as="geometry" />
        </mxCell>
        <mxCell id="-4h2VTbRcgzLQDmxoGYg-137" value="Mapping between request and method" style="whiteSpace=wrap;html=1;rounded=1;fillColor=#f5f5f5;gradientColor=#b3b3b3;strokeColor=#666666;" vertex="1" parent="1">
          <mxGeometry x="-505" y="20" width="120" height="60" as="geometry" />
        </mxCell>
        <mxCell id="-4h2VTbRcgzLQDmxoGYg-138" value="@RequestParam" style="whiteSpace=wrap;html=1;rounded=0;" vertex="1" parent="1">
          <mxGeometry x="-505" y="130" width="120" height="60" as="geometry" />
        </mxCell>
        <mxCell id="-4h2VTbRcgzLQDmxoGYg-139" value="@PathVariable" style="whiteSpace=wrap;html=1;rounded=0;" vertex="1" parent="1">
          <mxGeometry x="-305" y="20" width="120" height="60" as="geometry" />
        </mxCell>
        <mxCell id="-4h2VTbRcgzLQDmxoGYg-140" value="" style="edgeStyle=orthogonalEdgeStyle;rounded=0;orthogonalLoop=1;jettySize=auto;html=1;" edge="1" parent="1" source="-4h2VTbRcgzLQDmxoGYg-141" target="-4h2VTbRcgzLQDmxoGYg-143">
          <mxGeometry relative="1" as="geometry" />
        </mxCell>
        <mxCell id="-4h2VTbRcgzLQDmxoGYg-141" value="Controller method&#39;s parameter types" style="whiteSpace=wrap;html=1;rounded=1;gradientColor=#b3b3b3;fillColor=#f5f5f5;strokeColor=#666666;" vertex="1" parent="1">
          <mxGeometry x="-1430" y="20" width="180" height="60" as="geometry" />
        </mxCell>
        <mxCell id="-4h2VTbRcgzLQDmxoGYg-142" value="" style="edgeStyle=orthogonalEdgeStyle;rounded=0;orthogonalLoop=1;jettySize=auto;html=1;" edge="1" parent="1" source="-4h2VTbRcgzLQDmxoGYg-143" target="-4h2VTbRcgzLQDmxoGYg-145">
          <mxGeometry relative="1" as="geometry" />
        </mxCell>
        <mxCell id="-4h2VTbRcgzLQDmxoGYg-143" value="WebRequest," style="whiteSpace=wrap;html=1;rounded=0;" vertex="1" parent="1">
          <mxGeometry x="-2000" y="20" width="180" height="60" as="geometry" />
        </mxCell>
        <mxCell id="-4h2VTbRcgzLQDmxoGYg-144" value="NativeWebRequest" style="whiteSpace=wrap;html=1;rounded=0;" vertex="1" parent="1">
          <mxGeometry x="-2000" y="80" width="180" height="60" as="geometry" />
        </mxCell>
        <mxCell id="-4h2VTbRcgzLQDmxoGYg-145" value="Access to HTTP request details, parameters, also&#xa;request and session attributes, without direct use of the Servlet API" style="whiteSpace=wrap;html=1;rounded=0;" vertex="1" parent="1">
          <mxGeometry x="-2380" y="20" width="300" height="60" as="geometry" />
        </mxCell>
        <mxCell id="-4h2VTbRcgzLQDmxoGYg-146" value="" style="edgeStyle=orthogonalEdgeStyle;rounded=0;orthogonalLoop=1;jettySize=auto;html=1;" edge="1" parent="1" source="-4h2VTbRcgzLQDmxoGYg-147" target="-4h2VTbRcgzLQDmxoGYg-148">
          <mxGeometry relative="1" as="geometry" />
        </mxCell>
        <UserObject label="javax.servlet.ServletRequest" link="javax.servlet.ServletRequest" id="-4h2VTbRcgzLQDmxoGYg-147">
          <mxCell style="whiteSpace=wrap;html=1;rounded=0;" vertex="1" parent="1">
            <mxGeometry x="-2000" y="140" width="180" height="60" as="geometry" />
          </mxCell>
        </UserObject>
        <UserObject label="Object to provide client request information,&lt;br&gt;allows access to parameters, attributes and other request details without direct use of&lt;br&gt;Spring Interfaces" link="javax.servlet.ServletRequest" id="-4h2VTbRcgzLQDmxoGYg-148">
          <mxCell style="whiteSpace=wrap;html=1;rounded=0;" vertex="1" parent="1">
            <mxGeometry x="-2380" y="140" width="300" height="60" as="geometry" />
          </mxCell>
        </UserObject>
        <mxCell id="-4h2VTbRcgzLQDmxoGYg-149" value="" style="edgeStyle=orthogonalEdgeStyle;rounded=0;orthogonalLoop=1;jettySize=auto;html=1;" edge="1" parent="1" source="-4h2VTbRcgzLQDmxoGYg-150" target="-4h2VTbRcgzLQDmxoGYg-151">
          <mxGeometry relative="1" as="geometry" />
        </mxCell>
        <UserObject label="javax.servlet.ServletResponse" link="javax.servlet.ServletResponse" id="-4h2VTbRcgzLQDmxoGYg-150">
          <mxCell style="whiteSpace=wrap;html=1;rounded=0;" vertex="1" parent="1">
            <mxGeometry x="-2000" y="200" width="180" height="60" as="geometry" />
          </mxCell>
        </UserObject>
        <UserObject label="Object created by servlet container, passed to&lt;br&gt;service method of servlet, used by servlet to send a response to the client" link="javax.servlet.ServletResponse" id="-4h2VTbRcgzLQDmxoGYg-151">
          <mxCell style="whiteSpace=wrap;html=1;rounded=0;" vertex="1" parent="1">
            <mxGeometry x="-2380" y="200" width="300" height="60" as="geometry" />
          </mxCell>
        </UserObject>
        <mxCell id="-4h2VTbRcgzLQDmxoGYg-152" value="" style="edgeStyle=orthogonalEdgeStyle;rounded=0;orthogonalLoop=1;jettySize=auto;html=1;" edge="1" parent="1" source="-4h2VTbRcgzLQDmxoGYg-153" target="-4h2VTbRcgzLQDmxoGYg-154">
          <mxGeometry relative="1" as="geometry" />
        </mxCell>
        <UserObject label="javax.servlet.http.HttpSession" link="javax.servlet.http.HttpSession" id="-4h2VTbRcgzLQDmxoGYg-153">
          <mxCell style="whiteSpace=wrap;html=1;rounded=0;" vertex="1" parent="1">
            <mxGeometry x="-2000" y="260" width="180" height="60" as="geometry" />
          </mxCell>
        </UserObject>
        <UserObject label="Allows access to session information and&lt;br&gt;attributes, also enforces HTTP session for request" link="javax.servlet.http.HttpSession" id="-4h2VTbRcgzLQDmxoGYg-154">
          <mxCell style="whiteSpace=wrap;html=1;rounded=0;" vertex="1" parent="1">
            <mxGeometry x="-2380" y="260" width="300" height="60" as="geometry" />
          </mxCell>
        </UserObject>
        <mxCell id="-4h2VTbRcgzLQDmxoGYg-155" value="" style="edgeStyle=orthogonalEdgeStyle;rounded=0;orthogonalLoop=1;jettySize=auto;html=1;" edge="1" parent="1" source="-4h2VTbRcgzLQDmxoGYg-156" target="-4h2VTbRcgzLQDmxoGYg-157">
          <mxGeometry relative="1" as="geometry" />
        </mxCell>
        <UserObject label="javax.servlet.http.PushBuilder" link="javax.servlet.http.PushBuilder" id="-4h2VTbRcgzLQDmxoGYg-156">
          <mxCell style="whiteSpace=wrap;html=1;rounded=0;" vertex="1" parent="1">
            <mxGeometry x="-2000" y="320" width="180" height="60" as="geometry" />
          </mxCell>
        </UserObject>
        <mxCell id="-4h2VTbRcgzLQDmxoGYg-157" value="Servlet 4.0 push builder API for&#xa;programmatic HTTP/2 resource pushes, allows resources to be delivered in advance by&#xa;the server, resulting in a faster load time" style="whiteSpace=wrap;html=1;rounded=0;" vertex="1" parent="1">
          <mxGeometry x="-2380" y="320" width="300" height="60" as="geometry" />
        </mxCell>
        <mxCell id="-4h2VTbRcgzLQDmxoGYg-158" value="" style="edgeStyle=orthogonalEdgeStyle;rounded=0;orthogonalLoop=1;jettySize=auto;html=1;" edge="1" parent="1" source="-4h2VTbRcgzLQDmxoGYg-159" target="-4h2VTbRcgzLQDmxoGYg-160">
          <mxGeometry relative="1" as="geometry" />
        </mxCell>
        <UserObject label="java.security.Principal" link="java.security.Principal" id="-4h2VTbRcgzLQDmxoGYg-159">
          <mxCell style="whiteSpace=wrap;html=1;rounded=0;" vertex="1" parent="1">
            <mxGeometry x="-2000" y="380" width="180" height="60" as="geometry" />
          </mxCell>
        </UserObject>
        <UserObject label="Currently authenticated user" link="java.security.Principal" id="-4h2VTbRcgzLQDmxoGYg-160">
          <mxCell style="whiteSpace=wrap;html=1;rounded=0;" vertex="1" parent="1">
            <mxGeometry x="-2260" y="380" width="180" height="60" as="geometry" />
          </mxCell>
        </UserObject>
        <mxCell id="-4h2VTbRcgzLQDmxoGYg-161" value="" style="edgeStyle=orthogonalEdgeStyle;rounded=0;orthogonalLoop=1;jettySize=auto;html=1;" edge="1" parent="1" source="-4h2VTbRcgzLQDmxoGYg-162" target="-4h2VTbRcgzLQDmxoGYg-163">
          <mxGeometry relative="1" as="geometry" />
        </mxCell>
        <UserObject label="HttpMethod" link="java.security.Principal" id="-4h2VTbRcgzLQDmxoGYg-162">
          <mxCell style="whiteSpace=wrap;html=1;rounded=0;" vertex="1" parent="1">
            <mxGeometry x="-2000" y="440" width="180" height="60" as="geometry" />
          </mxCell>
        </UserObject>
        <UserObject label="HTTP method used for request, one of GET, HEAD, POST, PUT,&#xa;PATCH, DELETE, OPTIONS, TRACE" link="java.security.Principal" id="-4h2VTbRcgzLQDmxoGYg-163">
          <mxCell style="whiteSpace=wrap;html=1;rounded=0;" vertex="1" parent="1">
            <mxGeometry x="-2380" y="440" width="300" height="60" as="geometry" />
          </mxCell>
        </UserObject>
        <mxCell id="-4h2VTbRcgzLQDmxoGYg-164" value="" style="edgeStyle=orthogonalEdgeStyle;rounded=0;orthogonalLoop=1;jettySize=auto;html=1;" edge="1" parent="1" source="-4h2VTbRcgzLQDmxoGYg-165" target="-4h2VTbRcgzLQDmxoGYg-166">
          <mxGeometry relative="1" as="geometry" />
        </mxCell>
        <UserObject label="java.util.Locale" link="java.util.Locale" id="-4h2VTbRcgzLQDmxoGYg-165">
          <mxCell style="whiteSpace=wrap;html=1;rounded=0;" vertex="1" parent="1">
            <mxGeometry x="-2000" y="500" width="180" height="60" as="geometry" />
          </mxCell>
        </UserObject>
        <UserObject label="Request locale, determined by the most specific&lt;br&gt;LocaleResolver available" link="java.security.Principal" id="-4h2VTbRcgzLQDmxoGYg-166">
          <mxCell style="whiteSpace=wrap;html=1;rounded=0;" vertex="1" parent="1">
            <mxGeometry x="-2380" y="500" width="300" height="60" as="geometry" />
          </mxCell>
        </UserObject>
        <mxCell id="-4h2VTbRcgzLQDmxoGYg-167" value="" style="edgeStyle=orthogonalEdgeStyle;rounded=0;orthogonalLoop=1;jettySize=auto;html=1;" edge="1" parent="1" source="-4h2VTbRcgzLQDmxoGYg-168" target="-4h2VTbRcgzLQDmxoGYg-169">
          <mxGeometry relative="1" as="geometry" />
        </mxCell>
        <UserObject label="java.util.TimeZone + java.time.ZoneId" link="java.util.Locale" id="-4h2VTbRcgzLQDmxoGYg-168">
          <mxCell style="whiteSpace=wrap;html=1;rounded=0;" vertex="1" parent="1">
            <mxGeometry x="-2000" y="560" width="180" height="60" as="geometry" />
          </mxCell>
        </UserObject>
        <UserObject label="time zone associated with the&#xa;current request, as determined by a LocaleContextResolver" link="java.security.Principal" id="-4h2VTbRcgzLQDmxoGYg-169">
          <mxCell style="whiteSpace=wrap;html=1;rounded=0;" vertex="1" parent="1">
            <mxGeometry x="-2380" y="560" width="300" height="60" as="geometry" />
          </mxCell>
        </UserObject>
        <mxCell id="-4h2VTbRcgzLQDmxoGYg-170" style="edgeStyle=orthogonalEdgeStyle;rounded=0;orthogonalLoop=1;jettySize=auto;html=1;entryX=1;entryY=0.5;entryDx=0;entryDy=0;" edge="1" parent="1" source="-4h2VTbRcgzLQDmxoGYg-171" target="-4h2VTbRcgzLQDmxoGYg-172">
          <mxGeometry relative="1" as="geometry" />
        </mxCell>
        <UserObject label="java.io.InputStream, java.io.Reader" link="java.util.Locale" id="-4h2VTbRcgzLQDmxoGYg-171">
          <mxCell style="whiteSpace=wrap;html=1;rounded=0;" vertex="1" parent="1">
            <mxGeometry x="-2000" y="620" width="180" height="60" as="geometry" />
          </mxCell>
        </UserObject>
        <UserObject label="allows access to raw request body as&#xa;exposed by the Servlet API" link="java.security.Principal" id="-4h2VTbRcgzLQDmxoGYg-172">
          <mxCell style="whiteSpace=wrap;html=1;rounded=0;" vertex="1" parent="1">
            <mxGeometry x="-2380" y="620" width="300" height="60" as="geometry" />
          </mxCell>
        </UserObject>
        <mxCell id="-4h2VTbRcgzLQDmxoGYg-173" value="" style="edgeStyle=orthogonalEdgeStyle;rounded=0;orthogonalLoop=1;jettySize=auto;html=1;" edge="1" parent="1" source="-4h2VTbRcgzLQDmxoGYg-174" target="-4h2VTbRcgzLQDmxoGYg-175">
          <mxGeometry relative="1" as="geometry" />
        </mxCell>
        <UserObject label="java.io.OutputStream, java.io.Writer" link="java.util.Locale" id="-4h2VTbRcgzLQDmxoGYg-174">
          <mxCell style="whiteSpace=wrap;html=1;rounded=0;" vertex="1" parent="1">
            <mxGeometry x="-2000" y="680" width="180" height="60" as="geometry" />
          </mxCell>
        </UserObject>
        <UserObject label="allows to create raw response as&#xa;exposed by the Servlet API" link="java.security.Principal" id="-4h2VTbRcgzLQDmxoGYg-175">
          <mxCell style="whiteSpace=wrap;html=1;rounded=0;" vertex="1" parent="1">
            <mxGeometry x="-2380" y="680" width="300" height="60" as="geometry" />
          </mxCell>
        </UserObject>
        <mxCell id="-4h2VTbRcgzLQDmxoGYg-176" value="" style="edgeStyle=orthogonalEdgeStyle;rounded=0;orthogonalLoop=1;jettySize=auto;html=1;" edge="1" parent="1" source="-4h2VTbRcgzLQDmxoGYg-177" target="-4h2VTbRcgzLQDmxoGYg-178">
          <mxGeometry relative="1" as="geometry" />
        </mxCell>
        <UserObject label="HttpEntity&lt;B&gt;" link="java.util.Locale" id="-4h2VTbRcgzLQDmxoGYg-177">
          <mxCell style="whiteSpace=wrap;html=1;rounded=0;" vertex="1" parent="1">
            <mxGeometry x="-2000" y="740" width="180" height="60" as="geometry" />
          </mxCell>
        </UserObject>
        <UserObject label="container object that exposes request headers and body, body is&#xa;converted with usage of HttpMessageConverter" link="java.security.Principal" id="-4h2VTbRcgzLQDmxoGYg-178">
          <mxCell style="whiteSpace=wrap;html=1;rounded=0;" vertex="1" parent="1">
            <mxGeometry x="-2380" y="740" width="300" height="60" as="geometry" />
          </mxCell>
        </UserObject>
        <mxCell id="-4h2VTbRcgzLQDmxoGYg-179" value="" style="edgeStyle=orthogonalEdgeStyle;rounded=0;orthogonalLoop=1;jettySize=auto;html=1;" edge="1" parent="1" source="-4h2VTbRcgzLQDmxoGYg-180" target="-4h2VTbRcgzLQDmxoGYg-181">
          <mxGeometry relative="1" as="geometry" />
        </mxCell>
        <UserObject label="java.util.Map, org.springframework.ui.Model,&#xa;org.springframework.ui.ModelMap" link="java.util.Locale" id="-4h2VTbRcgzLQDmxoGYg-180">
          <mxCell style="whiteSpace=wrap;html=1;rounded=0;" vertex="1" parent="1">
            <mxGeometry x="-2000" y="800" width="180" height="60" as="geometry" />
          </mxCell>
        </UserObject>
        <UserObject label="used to expose data to templates as part of&#xa;view rendering" link="java.security.Principal" id="-4h2VTbRcgzLQDmxoGYg-181">
          <mxCell style="whiteSpace=wrap;html=1;rounded=0;" vertex="1" parent="1">
            <mxGeometry x="-2380" y="800" width="300" height="60" as="geometry" />
          </mxCell>
        </UserObject>
        <mxCell id="-4h2VTbRcgzLQDmxoGYg-182" value="" style="edgeStyle=orthogonalEdgeStyle;rounded=0;orthogonalLoop=1;jettySize=auto;html=1;" edge="1" parent="1" source="-4h2VTbRcgzLQDmxoGYg-183" target="-4h2VTbRcgzLQDmxoGYg-184">
          <mxGeometry relative="1" as="geometry" />
        </mxCell>
        <UserObject label="RedirectAttributes" link="java.util.Locale" id="-4h2VTbRcgzLQDmxoGYg-183">
          <mxCell style="whiteSpace=wrap;html=1;rounded=0;" vertex="1" parent="1">
            <mxGeometry x="-2000" y="860" width="180" height="60" as="geometry" />
          </mxCell>
        </UserObject>
        <UserObject label="specify attributes to use in case of redirect, regular&#xa;attributes will be added to query string and flash attributes will be kept temporarily&#xa;until end of request, flash attributes are kept typically in the session and are removed&#xa;immediately after request is completed" link="java.security.Principal" id="-4h2VTbRcgzLQDmxoGYg-184">
          <mxCell style="whiteSpace=wrap;html=1;rounded=0;" vertex="1" parent="1">
            <mxGeometry x="-2560" y="860" width="480" height="60" as="geometry" />
          </mxCell>
        </UserObject>
        <mxCell id="-4h2VTbRcgzLQDmxoGYg-185" value="" style="edgeStyle=orthogonalEdgeStyle;rounded=0;orthogonalLoop=1;jettySize=auto;html=1;" edge="1" parent="1" source="-4h2VTbRcgzLQDmxoGYg-186" target="-4h2VTbRcgzLQDmxoGYg-187">
          <mxGeometry relative="1" as="geometry" />
        </mxCell>
        <UserObject label="Errors, BindingResult" link="java.util.Locale" id="-4h2VTbRcgzLQDmxoGYg-186">
          <mxCell style="whiteSpace=wrap;html=1;rounded=0;" vertex="1" parent="1">
            <mxGeometry x="-2000" y="920" width="180" height="60" as="geometry" />
          </mxCell>
        </UserObject>
        <UserObject label="used to gain access to form validation and binding data&#xa;results, can be used with @ModelAttribute, @RequestBody or @RequestPart&#xa;argument, Errors and BindingResult argument must be declared immediately&#xa;after the validated method argument" link="java.security.Principal" id="-4h2VTbRcgzLQDmxoGYg-187">
          <mxCell style="whiteSpace=wrap;html=1;rounded=0;" vertex="1" parent="1">
            <mxGeometry x="-2560" y="920" width="480" height="60" as="geometry" />
          </mxCell>
        </UserObject>
        <mxCell id="-4h2VTbRcgzLQDmxoGYg-188" value="" style="edgeStyle=orthogonalEdgeStyle;rounded=0;orthogonalLoop=1;jettySize=auto;html=1;" edge="1" parent="1" source="-4h2VTbRcgzLQDmxoGYg-189" target="-4h2VTbRcgzLQDmxoGYg-190">
          <mxGeometry relative="1" as="geometry" />
        </mxCell>
        <UserObject label="SessionStatus&lt;br&gt;@SessionAttributes" link="java.util.Locale" id="-4h2VTbRcgzLQDmxoGYg-189">
          <mxCell style="whiteSpace=wrap;html=1;rounded=0;" vertex="1" parent="1">
            <mxGeometry x="-2000" y="980" width="180" height="60" as="geometry" />
          </mxCell>
        </UserObject>
        <UserObject label="useful for multi step form&#xa;processing, @SessionAttributes allows to keep @ModelAttribute objects&#xa;between requests and SessionStatus allows to clean session variables when form&#xa;processing is done" link="java.security.Principal" id="-4h2VTbRcgzLQDmxoGYg-190">
          <mxCell style="whiteSpace=wrap;html=1;rounded=0;" vertex="1" parent="1">
            <mxGeometry x="-2560" y="980" width="480" height="60" as="geometry" />
          </mxCell>
        </UserObject>
        <UserObject label="UriComponentsBuilder" link="java.util.Locale" id="-4h2VTbRcgzLQDmxoGYg-191">
          <mxCell style="whiteSpace=wrap;html=1;rounded=0;" vertex="1" parent="1">
            <mxGeometry x="-2000" y="1040" width="180" height="60" as="geometry" />
          </mxCell>
        </UserObject>
        <UserObject label="used to build URLs relative to current scheme, host, port,&#xa;contextPath etc." link="java.security.Principal" id="-4h2VTbRcgzLQDmxoGYg-192">
          <mxCell style="whiteSpace=wrap;html=1;rounded=0;" vertex="1" parent="1">
            <mxGeometry x="-2560" y="1040" width="480" height="60" as="geometry" />
          </mxCell>
        </UserObject>
        <mxCell id="-4h2VTbRcgzLQDmxoGYg-193" value="" style="edgeStyle=orthogonalEdgeStyle;rounded=0;orthogonalLoop=1;jettySize=auto;html=1;" edge="1" parent="1" source="-4h2VTbRcgzLQDmxoGYg-194" target="-4h2VTbRcgzLQDmxoGYg-195">
          <mxGeometry relative="1" as="geometry" />
        </mxCell>
        <mxCell id="-4h2VTbRcgzLQDmxoGYg-194" value="Controller method&#39;s parameter annotations" style="whiteSpace=wrap;html=1;rounded=1;gradientColor=#b3b3b3;fillColor=#f5f5f5;strokeColor=#666666;" vertex="1" parent="1">
          <mxGeometry x="-1430" y="-170" width="180" height="60" as="geometry" />
        </mxCell>
        <mxCell id="-4h2VTbRcgzLQDmxoGYg-195" value="@RequestParam" style="whiteSpace=wrap;html=1;rounded=0;" vertex="1" parent="1">
          <mxGeometry x="-1690" y="-170" width="180" height="60" as="geometry" />
        </mxCell>
        <mxCell id="-4h2VTbRcgzLQDmxoGYg-196" value="@PathVariable" style="whiteSpace=wrap;html=1;rounded=0;" vertex="1" parent="1">
          <mxGeometry x="-1690" y="-230" width="180" height="60" as="geometry" />
        </mxCell>
        <mxCell id="-4h2VTbRcgzLQDmxoGYg-197" value="" style="edgeStyle=orthogonalEdgeStyle;rounded=0;orthogonalLoop=1;jettySize=auto;html=1;" edge="1" parent="1" source="-4h2VTbRcgzLQDmxoGYg-198" target="-4h2VTbRcgzLQDmxoGYg-199">
          <mxGeometry relative="1" as="geometry" />
        </mxCell>
        <mxCell id="-4h2VTbRcgzLQDmxoGYg-198" value="@MatrixVariable" style="whiteSpace=wrap;html=1;rounded=0;" vertex="1" parent="1">
          <mxGeometry x="-1690" y="-290" width="180" height="60" as="geometry" />
        </mxCell>
        <mxCell id="-4h2VTbRcgzLQDmxoGYg-199" value="/employees/id=1;name=John" style="whiteSpace=wrap;html=1;rounded=0;" vertex="1" parent="1">
          <mxGeometry x="-1950" y="-290" width="180" height="60" as="geometry" />
        </mxCell>
        <mxCell id="-4h2VTbRcgzLQDmxoGYg-200" value="@CookieValue" style="whiteSpace=wrap;html=1;rounded=0;" vertex="1" parent="1">
          <mxGeometry x="-1690" y="-350" width="180" height="60" as="geometry" />
        </mxCell>
        <mxCell id="-4h2VTbRcgzLQDmxoGYg-201" value="@RequestHeader" style="whiteSpace=wrap;html=1;rounded=0;" vertex="1" parent="1">
          <mxGeometry x="-1690" y="-410" width="180" height="60" as="geometry" />
        </mxCell>
        <mxCell id="-4h2VTbRcgzLQDmxoGYg-202" value="@RequestBody" style="whiteSpace=wrap;html=1;rounded=0;" vertex="1" parent="1">
          <mxGeometry x="-1690" y="-470" width="180" height="60" as="geometry" />
        </mxCell>
        <mxCell id="-4h2VTbRcgzLQDmxoGYg-203" value="@RequestPart" style="whiteSpace=wrap;html=1;rounded=0;" vertex="1" parent="1">
          <mxGeometry x="-1690" y="-530" width="180" height="60" as="geometry" />
        </mxCell>
        <mxCell id="-4h2VTbRcgzLQDmxoGYg-204" value="@RequestAttribute" style="whiteSpace=wrap;html=1;rounded=0;" vertex="1" parent="1">
          <mxGeometry x="-1690" y="-110" width="180" height="60" as="geometry" />
        </mxCell>
        <mxCell id="-4h2VTbRcgzLQDmxoGYg-205" value="@ModelAttribute" style="whiteSpace=wrap;html=1;rounded=0;" vertex="1" parent="1">
          <mxGeometry x="-1690" y="-590" width="180" height="60" as="geometry" />
        </mxCell>
        <mxCell id="-4h2VTbRcgzLQDmxoGYg-206" value="" style="edgeStyle=orthogonalEdgeStyle;rounded=0;orthogonalLoop=1;jettySize=auto;html=1;" edge="1" parent="1" source="-4h2VTbRcgzLQDmxoGYg-207" target="-4h2VTbRcgzLQDmxoGYg-210">
          <mxGeometry relative="1" as="geometry" />
        </mxCell>
        <mxCell id="-4h2VTbRcgzLQDmxoGYg-207" value="@SessionAttributes" style="whiteSpace=wrap;html=1;rounded=0;" vertex="1" parent="1">
          <mxGeometry x="-1690" y="-650" width="180" height="60" as="geometry" />
        </mxCell>
        <mxCell id="-4h2VTbRcgzLQDmxoGYg-208" value="" style="edgeStyle=orthogonalEdgeStyle;rounded=0;orthogonalLoop=1;jettySize=auto;html=1;" edge="1" parent="1" source="-4h2VTbRcgzLQDmxoGYg-209" target="-4h2VTbRcgzLQDmxoGYg-211">
          <mxGeometry relative="1" as="geometry" />
        </mxCell>
        <mxCell id="-4h2VTbRcgzLQDmxoGYg-209" value="@SessionAttribute" style="whiteSpace=wrap;html=1;rounded=0;" vertex="1" parent="1">
          <mxGeometry x="-1690" y="-710" width="180" height="60" as="geometry" />
        </mxCell>
        <mxCell id="-4h2VTbRcgzLQDmxoGYg-210" value="used to store model attributes in the HTTP Servlet session&#xa;between requests, useful for multi step from processing" style="whiteSpace=wrap;html=1;rounded=0;" vertex="1" parent="1">
          <mxGeometry x="-2060" y="-650" width="290" height="60" as="geometry" />
        </mxCell>
        <mxCell id="-4h2VTbRcgzLQDmxoGYg-211" value="access to pre-existing session attributes that are managed&#xa;globally, can be made optional with usage of required attribute or Java 8 Optional" style="whiteSpace=wrap;html=1;rounded=0;" vertex="1" parent="1">
          <mxGeometry x="-2060" y="-710" width="290" height="60" as="geometry" />
        </mxCell>
        <mxCell id="-4h2VTbRcgzLQDmxoGYg-212" value="" style="edgeStyle=orthogonalEdgeStyle;rounded=0;orthogonalLoop=1;jettySize=auto;html=1;" edge="1" parent="1" source="-4h2VTbRcgzLQDmxoGYg-213" target="-4h2VTbRcgzLQDmxoGYg-215">
          <mxGeometry relative="1" as="geometry" />
        </mxCell>
        <mxCell id="-4h2VTbRcgzLQDmxoGYg-213" value="Return types" style="whiteSpace=wrap;html=1;rounded=1;gradientColor=#b3b3b3;fillColor=#f5f5f5;strokeColor=#666666;" vertex="1" parent="1">
          <mxGeometry x="-1120" y="290" width="180" height="60" as="geometry" />
        </mxCell>
        <mxCell id="-4h2VTbRcgzLQDmxoGYg-214" value="" style="edgeStyle=orthogonalEdgeStyle;rounded=0;orthogonalLoop=1;jettySize=auto;html=1;" edge="1" parent="1" source="-4h2VTbRcgzLQDmxoGYg-215" target="-4h2VTbRcgzLQDmxoGYg-216">
          <mxGeometry relative="1" as="geometry" />
        </mxCell>
        <mxCell id="-4h2VTbRcgzLQDmxoGYg-215" value="@ResponseBody" style="whiteSpace=wrap;html=1;rounded=0;" vertex="1" parent="1">
          <mxGeometry x="-1380" y="290" width="180" height="60" as="geometry" />
        </mxCell>
        <mxCell id="-4h2VTbRcgzLQDmxoGYg-216" value="binds method return value to web response body, complex types&#xa;will be converted with usage of HttpMessageConverter" style="whiteSpace=wrap;html=1;rounded=0;" vertex="1" parent="1">
          <mxGeometry x="-1740" y="290" width="280" height="60" as="geometry" />
        </mxCell>
        <mxCell id="-4h2VTbRcgzLQDmxoGYg-217" value="" style="edgeStyle=orthogonalEdgeStyle;rounded=0;orthogonalLoop=1;jettySize=auto;html=1;" edge="1" parent="1" source="-4h2VTbRcgzLQDmxoGYg-218" target="-4h2VTbRcgzLQDmxoGYg-219">
          <mxGeometry relative="1" as="geometry" />
        </mxCell>
        <mxCell id="-4h2VTbRcgzLQDmxoGYg-218" value="HttpEntity&lt;B&gt;, ResponseEntity&lt;B&gt;" style="whiteSpace=wrap;html=1;rounded=0;" vertex="1" parent="1">
          <mxGeometry x="-1380" y="350" width="180" height="60" as="geometry" />
        </mxCell>
        <mxCell id="-4h2VTbRcgzLQDmxoGYg-219" value="allows to specify full response with headers&#xa;and body, ResponseEntity&lt;B&gt; additionally allows you to specify HTTP status code" style="whiteSpace=wrap;html=1;rounded=0;" vertex="1" parent="1">
          <mxGeometry x="-1740" y="350" width="280" height="60" as="geometry" />
        </mxCell>
        <mxCell id="-4h2VTbRcgzLQDmxoGYg-220" value="" style="edgeStyle=orthogonalEdgeStyle;rounded=0;orthogonalLoop=1;jettySize=auto;html=1;" edge="1" parent="1" source="-4h2VTbRcgzLQDmxoGYg-221" target="-4h2VTbRcgzLQDmxoGYg-222">
          <mxGeometry relative="1" as="geometry" />
        </mxCell>
        <mxCell id="-4h2VTbRcgzLQDmxoGYg-221" value="HttpHeaders" style="whiteSpace=wrap;html=1;rounded=0;" vertex="1" parent="1">
          <mxGeometry x="-1380" y="410" width="180" height="60" as="geometry" />
        </mxCell>
        <mxCell id="-4h2VTbRcgzLQDmxoGYg-222" value="allows to return response only with headers, without body" style="whiteSpace=wrap;html=1;rounded=0;" vertex="1" parent="1">
          <mxGeometry x="-1640" y="410" width="180" height="60" as="geometry" />
        </mxCell>
        <mxCell id="-4h2VTbRcgzLQDmxoGYg-223" value="" style="edgeStyle=orthogonalEdgeStyle;rounded=0;orthogonalLoop=1;jettySize=auto;html=1;" edge="1" parent="1" source="-4h2VTbRcgzLQDmxoGYg-224" target="-4h2VTbRcgzLQDmxoGYg-225">
          <mxGeometry relative="1" as="geometry" />
        </mxCell>
        <mxCell id="-4h2VTbRcgzLQDmxoGYg-224" value="HttpHeaders" style="whiteSpace=wrap;html=1;rounded=0;" vertex="1" parent="1">
          <mxGeometry x="-1380" y="470" width="180" height="110" as="geometry" />
        </mxCell>
        <mxCell id="-4h2VTbRcgzLQDmxoGYg-225" value="allows to return logical name of view to use when rendering response, view&#xa;will be resolved by ViewResolver, usually used with implicit model through&#xa;@ModelAttribute parameters or explicit model by declaring Model method&#xa;parameter" style="whiteSpace=wrap;html=1;rounded=0;" vertex="1" parent="1">
          <mxGeometry x="-1740" y="470" width="280" height="110" as="geometry" />
        </mxCell>
        <mxCell id="-4h2VTbRcgzLQDmxoGYg-226" value="" style="edgeStyle=orthogonalEdgeStyle;rounded=0;orthogonalLoop=1;jettySize=auto;html=1;" edge="1" parent="1" source="-4h2VTbRcgzLQDmxoGYg-227" target="-4h2VTbRcgzLQDmxoGYg-228">
          <mxGeometry relative="1" as="geometry" />
        </mxCell>
        <mxCell id="-4h2VTbRcgzLQDmxoGYg-227" value="View" style="whiteSpace=wrap;html=1;rounded=0;" vertex="1" parent="1">
          <mxGeometry x="-1380" y="580" width="180" height="90" as="geometry" />
        </mxCell>
        <mxCell id="-4h2VTbRcgzLQDmxoGYg-228" value="allows to return instance of view, like JstlView, ThymeleafView,&#xa;FreeMarkerView, usually used with implicit model through @ModelAttribute&#xa;parameters or explicit model by declaring Model method parameter" style="whiteSpace=wrap;html=1;rounded=0;" vertex="1" parent="1">
          <mxGeometry x="-1740" y="580" width="280" height="90" as="geometry" />
        </mxCell>
        <mxCell id="-4h2VTbRcgzLQDmxoGYg-229" value="" style="edgeStyle=orthogonalEdgeStyle;rounded=0;orthogonalLoop=1;jettySize=auto;html=1;" edge="1" parent="1" source="-4h2VTbRcgzLQDmxoGYg-230" target="-4h2VTbRcgzLQDmxoGYg-231">
          <mxGeometry relative="1" as="geometry" />
        </mxCell>
        <mxCell id="-4h2VTbRcgzLQDmxoGYg-230" value="Map, Model" style="whiteSpace=wrap;html=1;rounded=0;" vertex="1" parent="1">
          <mxGeometry x="-1380" y="670" width="180" height="60" as="geometry" />
        </mxCell>
        <mxCell id="-4h2VTbRcgzLQDmxoGYg-231" value="allows you to specify attributes to be added to the implicit model, with&#xa;the view name implicitly determined through a RequestToViewNameTranslator" style="whiteSpace=wrap;html=1;rounded=0;" vertex="1" parent="1">
          <mxGeometry x="-1740" y="670" width="280" height="60" as="geometry" />
        </mxCell>
        <mxCell id="-4h2VTbRcgzLQDmxoGYg-232" value="" style="edgeStyle=orthogonalEdgeStyle;rounded=0;orthogonalLoop=1;jettySize=auto;html=1;" edge="1" parent="1" source="-4h2VTbRcgzLQDmxoGYg-233" target="-4h2VTbRcgzLQDmxoGYg-234">
          <mxGeometry relative="1" as="geometry" />
        </mxCell>
        <mxCell id="-4h2VTbRcgzLQDmxoGYg-233" value="@ModelAttribute" style="whiteSpace=wrap;html=1;rounded=0;" vertex="1" parent="1">
          <mxGeometry x="-1380" y="730" width="180" height="60" as="geometry" />
        </mxCell>
        <mxCell id="-4h2VTbRcgzLQDmxoGYg-234" value="allows you to specify an attribute to be added to the model, with&#xa;the view name implicitly determined through a RequestToViewNameTranslator" style="whiteSpace=wrap;html=1;rounded=0;" vertex="1" parent="1">
          <mxGeometry x="-1740" y="730" width="280" height="60" as="geometry" />
        </mxCell>
        <mxCell id="-4h2VTbRcgzLQDmxoGYg-235" value="" style="edgeStyle=orthogonalEdgeStyle;rounded=0;orthogonalLoop=1;jettySize=auto;html=1;" edge="1" parent="1" source="-4h2VTbRcgzLQDmxoGYg-236" target="-4h2VTbRcgzLQDmxoGYg-237">
          <mxGeometry relative="1" as="geometry" />
        </mxCell>
        <mxCell id="-4h2VTbRcgzLQDmxoGYg-236" value="ModelAndView" style="whiteSpace=wrap;html=1;rounded=0;" vertex="1" parent="1">
          <mxGeometry x="-1380" y="790" width="180" height="80" as="geometry" />
        </mxCell>
        <mxCell id="-4h2VTbRcgzLQDmxoGYg-237" value="view and model attributes to use and, optionally, a response status,&#xa;view can be specified by logical name or instance of view can be passed, model can be&#xa;specified as named object or Map" style="whiteSpace=wrap;html=1;rounded=0;" vertex="1" parent="1">
          <mxGeometry x="-1740" y="790" width="280" height="80" as="geometry" />
        </mxCell>
        <mxCell id="-4h2VTbRcgzLQDmxoGYg-238" value="" style="edgeStyle=orthogonalEdgeStyle;rounded=0;orthogonalLoop=1;jettySize=auto;html=1;" edge="1" parent="1" source="-4h2VTbRcgzLQDmxoGYg-239" target="-4h2VTbRcgzLQDmxoGYg-240">
          <mxGeometry relative="1" as="geometry" />
        </mxCell>
        <mxCell id="-4h2VTbRcgzLQDmxoGYg-239" value="void" style="whiteSpace=wrap;html=1;rounded=0;" vertex="1" parent="1">
          <mxGeometry x="-1380" y="870" width="180" height="140" as="geometry" />
        </mxCell>
        <mxCell id="-4h2VTbRcgzLQDmxoGYg-240" value="method that returns void can correctly handle request by using&#xa;ServletResponse or OutputStream as parameter, or @ResponseStatus&#xa;annotation, if none of previous are used RequestToViewNameTranslator will&#xa;identify view based on request, void return type can also indicate “no response body”&#xa;for REST controllers" style="whiteSpace=wrap;html=1;rounded=0;" vertex="1" parent="1">
          <mxGeometry x="-1740" y="870" width="280" height="140" as="geometry" />
        </mxCell>
        <mxCell id="-4h2VTbRcgzLQDmxoGYg-241" value="" style="edgeStyle=orthogonalEdgeStyle;rounded=0;orthogonalLoop=1;jettySize=auto;html=1;" edge="1" parent="1" source="-4h2VTbRcgzLQDmxoGYg-242" target="-4h2VTbRcgzLQDmxoGYg-243">
          <mxGeometry relative="1" as="geometry" />
        </mxCell>
        <mxCell id="-4h2VTbRcgzLQDmxoGYg-242" value="DeferredResult&lt;V&gt;" style="whiteSpace=wrap;html=1;rounded=0;" vertex="1" parent="1">
          <mxGeometry x="-1380" y="1010" width="180" height="80" as="geometry" />
        </mxCell>
        <mxCell id="-4h2VTbRcgzLQDmxoGYg-243" value="allows to specify result for controller asynchronously from&#xa;different Thread or as result of some event callback, part of integration with Servlet&#xa;3.0 asynchronous request" style="whiteSpace=wrap;html=1;rounded=0;" vertex="1" parent="1">
          <mxGeometry x="-1740" y="1010" width="280" height="80" as="geometry" />
        </mxCell>
        <mxCell id="-4h2VTbRcgzLQDmxoGYg-244" style="edgeStyle=orthogonalEdgeStyle;rounded=0;orthogonalLoop=1;jettySize=auto;html=1;entryX=1;entryY=0.5;entryDx=0;entryDy=0;" edge="1" parent="1" source="-4h2VTbRcgzLQDmxoGYg-245" target="-4h2VTbRcgzLQDmxoGYg-246">
          <mxGeometry relative="1" as="geometry" />
        </mxCell>
        <mxCell id="-4h2VTbRcgzLQDmxoGYg-245" value="Callable&lt;V&gt;" style="whiteSpace=wrap;html=1;rounded=0;" vertex="1" parent="1">
          <mxGeometry x="-1380" y="1090" width="180" height="50" as="geometry" />
        </mxCell>
        <mxCell id="-4h2VTbRcgzLQDmxoGYg-246" value="allows to produce return value asynchronously in a Spring MVC-&#xa;managed thread" style="whiteSpace=wrap;html=1;rounded=0;" vertex="1" parent="1">
          <mxGeometry x="-1740" y="1090" width="280" height="50" as="geometry" />
        </mxCell>
        <mxCell id="-4h2VTbRcgzLQDmxoGYg-247" value="" style="edgeStyle=orthogonalEdgeStyle;rounded=0;orthogonalLoop=1;jettySize=auto;html=1;" edge="1" parent="1" source="-4h2VTbRcgzLQDmxoGYg-248" target="-4h2VTbRcgzLQDmxoGYg-249">
          <mxGeometry relative="1" as="geometry" />
        </mxCell>
        <mxCell id="-4h2VTbRcgzLQDmxoGYg-248" value="ListenableFuture&lt;V&gt;, CompletableFuture&lt;V&gt;, CompletionStage&lt;V&gt;" style="whiteSpace=wrap;html=1;rounded=0;" vertex="1" parent="1">
          <mxGeometry x="-1380" y="1140" width="180" height="50" as="geometry" />
        </mxCell>
        <mxCell id="-4h2VTbRcgzLQDmxoGYg-249" value="allows&#xa;to return set of chained, asynchronous operations, with callbacks and transformations" style="whiteSpace=wrap;html=1;rounded=0;" vertex="1" parent="1">
          <mxGeometry x="-1740" y="1140" width="280" height="50" as="geometry" />
        </mxCell>
        <mxCell id="-4h2VTbRcgzLQDmxoGYg-250" value="" style="edgeStyle=orthogonalEdgeStyle;rounded=0;orthogonalLoop=1;jettySize=auto;html=1;" edge="1" parent="1" source="-4h2VTbRcgzLQDmxoGYg-251" target="-4h2VTbRcgzLQDmxoGYg-252">
          <mxGeometry relative="1" as="geometry" />
        </mxCell>
        <mxCell id="-4h2VTbRcgzLQDmxoGYg-251" value="ResponseBodyEmitter, SseEmitter" style="whiteSpace=wrap;html=1;rounded=0;" vertex="1" parent="1">
          <mxGeometry x="-1380" y="1190" width="180" height="120" as="geometry" />
        </mxCell>
        <mxCell id="-4h2VTbRcgzLQDmxoGYg-252" value="allows to send objects in stream&#xa;asynchronously, objects will be converted with usage of HttpMessageConverter, can&#xa;be used with ResponseEntity, both classes have the same goal, however&#xa;SseEmitter uses Server-Sent Events standardized with W3C SSE specification" style="whiteSpace=wrap;html=1;rounded=0;" vertex="1" parent="1">
          <mxGeometry x="-1740" y="1190" width="280" height="120" as="geometry" />
        </mxCell>
        <mxCell id="-4h2VTbRcgzLQDmxoGYg-253" value="" style="edgeStyle=orthogonalEdgeStyle;rounded=0;orthogonalLoop=1;jettySize=auto;html=1;" edge="1" parent="1" source="-4h2VTbRcgzLQDmxoGYg-254" target="-4h2VTbRcgzLQDmxoGYg-255">
          <mxGeometry relative="1" as="geometry" />
        </mxCell>
        <mxCell id="-4h2VTbRcgzLQDmxoGYg-254" value="StreamingResponseBody" style="whiteSpace=wrap;html=1;rounded=0;" vertex="1" parent="1">
          <mxGeometry x="-1380" y="1310" width="180" height="50" as="geometry" />
        </mxCell>
        <mxCell id="-4h2VTbRcgzLQDmxoGYg-255" value="allows to write to the response OutputStream&#xa;asynchronously" style="whiteSpace=wrap;html=1;rounded=0;" vertex="1" parent="1">
          <mxGeometry x="-1740" y="1310" width="280" height="50" as="geometry" />
        </mxCell>
        <mxCell id="-4h2VTbRcgzLQDmxoGYg-256" value="" style="edgeStyle=orthogonalEdgeStyle;rounded=0;orthogonalLoop=1;jettySize=auto;html=1;" edge="1" parent="1" source="-4h2VTbRcgzLQDmxoGYg-257" target="-4h2VTbRcgzLQDmxoGYg-258">
          <mxGeometry relative="1" as="geometry" />
        </mxCell>
        <mxCell id="-4h2VTbRcgzLQDmxoGYg-257" value="Reactive types" style="whiteSpace=wrap;html=1;rounded=0;" vertex="1" parent="1">
          <mxGeometry x="-1380" y="1360" width="180" height="50" as="geometry" />
        </mxCell>
        <mxCell id="-4h2VTbRcgzLQDmxoGYg-258" value="allows to use Reactive types for streaming scenarios, handled by&lt;br&gt;ReactiveAdapterRegistry" style="whiteSpace=wrap;html=1;rounded=0;" vertex="1" parent="1">
          <mxGeometry x="-1740" y="1360" width="280" height="50" as="geometry" />
        </mxCell>
      </root>
    </mxGraphModel>
  </diagram>
</mxfile>
